<svg version="1.1" viewBox="0.0 0.0 600.0 371.0" fill="none" stroke="none" stroke-linecap="square" stroke-miterlimit="10" width="600" height="371" xmlns:xlink="http://www.w3.org/1999/xlink" xmlns="http://www.w3.org/2000/svg"><path fill="#ffffff" d="M0 0L600.0 0L600.0 371.0L0 371.0L0 0Z" fill-rule="nonzero"/><path stroke="#333333" stroke-width="1.0" stroke-linecap="butt" d="M153.5 54.5L153.5 332.5" fill-rule="nonzero"/><path stroke="#cccccc" stroke-width="1.0" stroke-linecap="butt" d="M224.5 54.5L224.5 332.5" fill-rule="nonzero"/><path stroke="#cccccc" stroke-width="1.0" stroke-linecap="butt" d="M296.5 54.5L296.5 332.5" fill-rule="nonzero"/><path stroke="#cccccc" stroke-width="1.0" stroke-linecap="butt" d="M367.5 54.5L367.5 332.5" fill-rule="nonzero"/><path stroke="#cccccc" stroke-width="1.0" stroke-linecap="butt" d="M438.5 54.5L438.5 332.5" fill-rule="nonzero"/><path stroke="#cccccc" stroke-width="1.0" stroke-linecap="butt" d="M510.5 54.5L510.5 332.5" fill-rule="nonzero"/><path stroke="#cccccc" stroke-width="1.0" stroke-linecap="butt" d="M581.5 54.5L581.5 332.5" fill-rule="nonzero"/><clipPath id="id_0"><path d="M153.55 54.916668L581.45 54.916668L581.45 332.45L153.55 332.45L153.55 54.916668Z" clip-rule="nonzero"/></clipPath><path stroke="#000000" stroke-width="2.0" stroke-linecap="butt" stroke-opacity="0.0" clip-path="url(#id_0)" d="M154.0 93.0L154.0 68.0L579.0 68.0C580.10455 68.0 581.0 68.89543 581.0 70.0L581.0 91.0C581.0 92.10457 580.10455 93.0 579.0 93.0Z" fill-rule="nonzero"/><path fill="#4285f4" clip-path="url(#id_0)" d="M154.0 93.0L154.0 68.0L579.0 68.0C580.10455 68.0 581.0 68.89543 581.0 70.0L581.0 91.0C581.0 92.10457 580.10455 93.0 579.0 93.0Z" fill-rule="nonzero"/><path stroke="#000000" stroke-width="2.0" stroke-linecap="butt" stroke-opacity="0.0" clip-path="url(#id_0)" d="M154.0 131.0L154.0 106.0L544.0 106.0C545.10455 106.0 546.0 106.89543 546.0 108.0L546.0 129.0C546.0 130.10457 545.10455 131.0 544.0 131.0Z" fill-rule="nonzero"/><path fill="#4285f4" clip-path="url(#id_0)" d="M154.0 131.0L154.0 106.0L544.0 106.0C545.10455 106.0 546.0 106.89543 546.0 108.0L546.0 129.0C546.0 130.10457 545.10455 131.0 544.0 131.0Z" fill-rule="nonzero"/><path stroke="#000000" stroke-width="2.0" stroke-linecap="butt" stroke-opacity="0.0" clip-path="url(#id_0)" d="M154.0 169.0L154.0 144.0L472.0 144.0C473.10458 144.0 474.0 144.89543 474.0 146.0L474.0 167.0C474.0 168.10457 473.10458 169.0 472.0 169.0Z" fill-rule="nonzero"/><path fill="#4285f4" clip-path="url(#id_0)" d="M154.0 169.0L154.0 144.0L472.0 144.0C473.10458 144.0 474.0 144.89543 474.0 146.0L474.0 167.0C474.0 168.10457 473.10458 169.0 472.0 169.0Z" fill-rule="nonzero"/><path stroke="#000000" stroke-width="2.0" stroke-linecap="butt" stroke-opacity="0.0" clip-path="url(#id_0)" d="M154.0 207.0L154.0 182.0L437.0 182.0C438.10458 182.0 439.0 182.89543 439.0 184.0L439.0 205.0C439.0 206.10457 438.10458 207.0 437.0 207.0Z" fill-rule="nonzero"/><path fill="#4285f4" clip-path="url(#id_0)" d="M154.0 207.0L154.0 182.0L437.0 182.0C438.10458 182.0 439.0 182.89543 439.0 184.0L439.0 205.0C439.0 206.10457 438.10458 207.0 437.0 207.0Z" fill-rule="nonzero"/><path stroke="#000000" stroke-width="2.0" stroke-linecap="butt" stroke-opacity="0.0" clip-path="url(#id_0)" d="M154.0 244.0L154.0 219.0L437.0 219.0C438.10458 219.0 439.0 219.89543 439.0 221.0L439.0 242.0C439.0 243.10457 438.10458 244.0 437.0 244.0Z" fill-rule="nonzero"/><path fill="#4285f4" clip-path="url(#id_0)" d="M154.0 244.0L154.0 219.0L437.0 219.0C438.10458 219.0 439.0 219.89543 439.0 221.0L439.0 242.0C439.0 243.10457 438.10458 244.0 437.0 244.0Z" fill-rule="nonzero"/><path stroke="#000000" stroke-width="2.0" stroke-linecap="butt" stroke-opacity="0.0" clip-path="url(#id_0)" d="M154.0 282.0L154.0 257.0L437.0 257.0C438.10458 257.0 439.0 257.89542 439.0 259.0L439.0 280.0C439.0 281.10458 438.10458 282.0 437.0 282.0Z" fill-rule="nonzero"/><path fill="#4285f4" clip-path="url(#id_0)" d="M154.0 282.0L154.0 257.0L437.0 257.0C438.10458 257.0 439.0 257.89542 439.0 259.0L439.0 280.0C439.0 281.10458 438.10458 282.0 437.0 282.0Z" fill-rule="nonzero"/><path stroke="#000000" stroke-width="2.0" stroke-linecap="butt" stroke-opacity="0.0" clip-path="url(#id_0)" d="M154.0 320.0L154.0 295.0L437.0 295.0C438.10458 295.0 439.0 295.89542 439.0 297.0L439.0 318.0C439.0 319.10458 438.10458 320.0 437.0 320.0Z" fill-rule="nonzero"/><path fill="#4285f4" clip-path="url(#id_0)" d="M154.0 320.0L154.0 295.0L437.0 295.0C438.10458 295.0 439.0 295.89542 439.0 297.0L439.0 318.0C439.0 319.10458 438.10458 320.0 437.0 320.0Z" fill-rule="nonzero"/><path fill="#000000" d="M29.550013 218.80833L20.956263 218.80833L20.956263 215.57396Q20.956263 214.58958 21.221888 213.99583Q21.487513 213.40208 22.034388 213.07396Q22.565638 212.73021 23.159388 212.73021Q23.706263 212.73021 24.190638 213.02708Q24.675013 213.32396 24.971888 213.93333Q25.206263 213.15208 25.768763 212.74583Q26.315638 212.32396 27.065638 212.32396Q27.659388 212.32396 28.190638 212.57396Q28.706263 212.82396 28.987513 213.19896Q29.268763 213.57396 29.409388 214.15208Q29.550013 214.71458 29.550013 215.52708L29.550013 218.80833ZM24.565638 217.66771L24.565638 215.80833Q24.565638 215.05833 24.471888 214.73021Q24.346888 214.29271 24.050013 214.07396Q23.737513 213.85521 23.284388 213.85521Q22.862513 213.85521 22.534388 214.05833Q22.206263 214.26146 22.096888 214.65208Q21.971888 215.02708 21.971888 215.94896L21.971888 217.66771L24.565638 217.66771ZM28.534388 217.66771L28.534388 215.52708Q28.534388 214.98021 28.487513 214.76146Q28.425013 214.35521 28.268763 214.10521Q28.096888 213.83958 27.784388 213.66771Q27.471888 213.49583 27.065638 213.49583Q26.581263 213.49583 26.221888 213.74583Q25.862513 213.98021 25.721888 214.41771Q25.581263 214.85521 25.581263 215.68333L25.581263 217.66771L28.534388 217.66771ZM28.784388 206.82396Q29.284388 207.41771 29.487513 207.96458Q29.690638 208.49583 29.690638 209.12083Q29.690638 210.15208 29.190638 210.69896Q28.690638 211.24583 27.909388 211.24583Q27.456263 211.24583 27.081263 211.04271Q26.690638 210.83958 26.471888 210.49583Q26.237513 210.15208 26.128138 209.73021Q26.034388 209.43333 25.956263 208.79271Q25.815638 207.52708 25.596888 206.91771Q25.378138 206.91771 25.331263 206.91771Q24.675013 206.91771 24.409388 207.21458Q24.065638 207.62083 24.065638 208.41771Q24.065638 209.15208 24.331263 209.51146Q24.581263 209.87083 25.237513 210.04271L25.096888 211.07396Q24.440638 210.93333 24.034388 210.60521Q23.628138 210.27708 23.409388 209.66771Q23.190638 209.05833 23.190638 208.26146Q23.190638 207.46458 23.378138 206.96458Q23.565638 206.46458 23.846888 206.23021Q24.128138 205.99583 24.565638 205.90208Q24.831263 205.85521 25.534388 205.85521L26.940638 205.85521Q28.409388 205.85521 28.800013 205.79271Q29.190638 205.71458 29.550013 205.51146L29.550013 206.62083Q29.221888 206.77708 28.784388 206.82396ZM26.425013 206.91771Q26.659388 207.49583 26.831263 208.63646Q26.925013 209.29271 27.050013 209.55833Q27.159388 209.82396 27.378138 209.98021Q27.596888 210.12083 27.878138 210.12083Q28.300013 210.12083 28.581263 209.80833Q28.862513 209.48021 28.862513 208.87083Q28.862513 208.26146 28.596888 207.79271Q28.331263 207.30833 27.862513 207.08958Q27.503138 206.91771 26.815638 206.91771L26.425013 206.91771ZM28.612513 201.58958L29.534388 201.43333Q29.628138 201.88646 29.628138 202.23021Q29.628138 202.80833 29.456263 203.12083Q29.268763 203.43333 28.971888 203.57396Q28.675013 203.69896 27.721888 203.69896L24.143763 203.69896L24.143763 204.46458L23.331263 204.46458L23.331263 203.69896L21.784388 203.69896L21.159388 202.65208L23.331263 202.65208L23.331263 201.58958L24.143763 201.58958L24.143763 202.65208L27.784388 202.65208Q28.237513 202.65208 28.362513 202.60521Q28.487513 202.54271 28.565638 202.41771Q28.643763 202.29271 28.643763 202.05833Q28.643763 201.87083 28.612513 201.58958ZM28.612513 198.58958L29.534388 198.43333Q29.628138 198.88646 29.628138 199.23021Q29.628138 199.80833 29.456263 200.12083Q29.268763 200.43333 28.971888 200.57396Q28.675013 200.69896 27.721888 200.69896L24.143763 200.69896L24.143763 201.46458L23.331263 201.46458L23.331263 200.69896L21.784388 200.69896L21.159388 199.65208L23.331263 199.65208L23.331263 198.58958L24.143763 198.58958L24.143763 199.65208L27.784388 199.65208Q28.237513 199.65208 28.362513 199.60521Q28.487513 199.54271 28.565638 199.41771Q28.643763 199.29271 28.643763 199.05833Q28.643763 198.87083 28.612513 198.58958ZM27.550013 193.63646L27.675013 192.54271Q28.628138 192.79271 29.159388 193.49583Q29.690638 194.19896 29.690638 195.27708Q29.690638 196.63646 28.846888 197.44896Q28.003138 198.24583 26.487513 198.24583Q24.925013 198.24583 24.065638 197.43333Q23.190638 196.62083 23.190638 195.33958Q23.190638 194.08958 24.034388 193.30833Q24.878138 192.51146 26.425013 192.51146Q26.518763 192.51146 26.706263 192.51146L26.706263 197.15208Q27.737513 197.08958 28.284388 196.57396Q28.815638 196.05833 28.815638 195.27708Q28.815638 194.69896 28.518763 194.29271Q28.206263 193.87083 27.550013 193.63646ZM25.846888 197.08958L25.846888 193.62083Q25.050013 193.68333 24.659388 194.01146Q24.050013 194.52708 24.050013 195.32396Q24.050013 196.05833 24.534388 196.55833Q25.018763 197.04271 25.846888 197.08958ZM29.550013 190.90208L23.331263 190.90208L23.331263 189.94896L24.268763 189.94896Q23.612513 189.58958 23.409388 189.29271Q23.190638 188.98021 23.190638 188.60521Q23.190638 188.07396 23.518763 187.52708L24.503138 187.88646Q24.268763 188.27708 24.268763 188.65208Q24.268763 189.01146 24.487513 189.29271Q24.690638 189.55833 25.065638 189.66771Q25.628138 189.85521 26.284388 189.85521L29.550013 189.85521L29.550013 190.90208Z" fill-rule="nonzero"/><path fill="#000000" d="M85.425 84.40442L85.425 75.81067L88.65938 75.81067Q89.64375 75.81067 90.2375 76.076294Q90.83125 76.34192 91.15938 76.888794Q91.50313 77.420044 91.50313 78.013794Q91.50313 78.56067 91.20625 79.045044Q90.90938 79.52942 90.3 79.826294Q91.08125 80.06067 91.4875 80.62317Q91.90938 81.170044 91.90938 81.920044Q91.90938 82.513794 91.65938 83.045044Q91.40938 83.56067 91.03438 83.84192Q90.65938 84.12317 90.08125 84.263794Q89.51875 84.40442 88.70625 84.40442L85.425 84.40442ZM86.56563 79.420044L88.425 79.420044Q89.175 79.420044 89.50313 79.326294Q89.94063 79.201294 90.15938 78.90442Q90.37813 78.59192 90.37813 78.138794Q90.37813 77.71692 90.175 77.388794Q89.97188 77.06067 89.58125 76.951294Q89.20625 76.826294 88.28438 76.826294L86.56563 76.826294L86.56563 79.420044ZM86.56563 83.388794L88.70625 83.388794Q89.25313 83.388794 89.47188 83.34192Q89.87813 83.27942 90.12813 83.12317Q90.39375 82.951294 90.56563 82.638794Q90.7375 82.326294 90.7375 81.920044Q90.7375 81.43567 90.4875 81.076294Q90.25313 80.71692 89.81563 80.576294Q89.37813 80.43567 88.55 80.43567L86.56563 80.43567L86.56563 83.388794ZM97.59688 82.40442L98.69063 82.52942Q98.44063 83.482544 97.7375 84.013794Q97.03438 84.545044 95.95625 84.545044Q94.59688 84.545044 93.78438 83.701294Q92.9875 82.857544 92.9875 81.34192Q92.9875 79.77942 93.8 78.920044Q94.6125 78.045044 95.89375 78.045044Q97.14375 78.045044 97.925 78.888794Q98.72188 79.732544 98.72188 81.27942Q98.72188 81.37317 98.72188 81.56067L94.08125 81.56067Q94.14375 82.59192 94.65938 83.138794Q95.175 83.670044 95.95625 83.670044Q96.53438 83.670044 96.94063 83.37317Q97.3625 83.06067 97.59688 82.40442ZM94.14375 80.701294L97.6125 80.701294Q97.55 79.90442 97.22188 79.513794Q96.70625 78.90442 95.90938 78.90442Q95.175 78.90442 94.675 79.388794Q94.19063 79.87317 94.14375 80.701294ZM100.34688 84.40442L100.34688 78.18567L101.28438 78.18567L101.28438 79.06067Q101.97188 78.045044 103.26875 78.045044Q103.83125 78.045044 104.3 78.24817Q104.78438 78.451294 105.01875 78.77942Q105.25313 79.107544 105.34688 79.545044Q105.39375 79.84192 105.39375 80.576294L105.39375 84.40442L104.34688 84.40442L104.34688 80.62317Q104.34688 79.96692 104.22188 79.65442Q104.09688 79.34192 103.78438 79.15442Q103.47188 78.951294 103.05 78.951294Q102.37813 78.951294 101.87813 79.388794Q101.39375 79.81067 101.39375 80.99817L101.39375 84.40442L100.34688 84.40442ZM110.09688 81.638794L111.15938 81.545044Q111.2375 82.201294 111.51875 82.607544Q111.8 83.013794 112.37813 83.27942Q112.97188 83.52942 113.70625 83.52942Q114.34688 83.52942 114.84688 83.34192Q115.34688 83.138794 115.58125 82.81067Q115.83125 82.46692 115.83125 82.076294Q115.83125 81.670044 115.59688 81.37317Q115.3625 81.06067 114.83125 80.857544Q114.47188 80.71692 113.28438 80.43567Q112.1125 80.15442 111.64375 79.90442Q111.01875 79.576294 110.72188 79.107544Q110.425 78.62317 110.425 78.02942Q110.425 77.388794 110.78438 76.826294Q111.15938 76.24817 111.8625 75.96692Q112.58125 75.670044 113.44063 75.670044Q114.39375 75.670044 115.12813 75.982544Q115.8625 76.27942 116.25313 76.888794Q116.64375 77.482544 116.675 78.232544L115.58125 78.31067Q115.4875 77.49817 114.97188 77.09192Q114.47188 76.670044 113.4875 76.670044Q112.45625 76.670044 111.9875 77.045044Q111.51875 77.420044 111.51875 77.951294Q111.51875 78.420044 111.84688 78.71692Q112.175 79.013794 113.55 79.326294Q114.94063 79.638794 115.45625 79.87317Q116.20625 80.232544 116.56563 80.763794Q116.925 81.27942 116.925 81.982544Q116.925 82.670044 116.53438 83.27942Q116.14375 83.87317 115.40938 84.21692Q114.675 84.545044 113.75313 84.545044Q112.58125 84.545044 111.78438 84.21692Q111.00313 83.87317 110.55 83.18567Q110.1125 82.49817 110.09688 81.638794ZM120.64375 83.46692L120.8 84.388794Q120.34688 84.482544 120.00313 84.482544Q119.425 84.482544 119.1125 84.31067Q118.8 84.12317 118.65938 83.826294Q118.53438 83.52942 118.53438 82.576294L118.53438 78.99817L117.76875 78.99817L117.76875 78.18567L118.53438 78.18567L118.53438 76.638794L119.58125 76.013794L119.58125 78.18567L120.64375 78.18567L120.64375 78.99817L119.58125 78.99817L119.58125 82.638794Q119.58125 83.09192 119.62813 83.21692Q119.69063 83.34192 119.81563 83.420044Q119.94063 83.49817 120.175 83.49817Q120.3625 83.49817 120.64375 83.46692ZM120.95625 81.295044Q120.95625 79.56067 121.90938 78.732544Q122.70625 78.045044 123.8625 78.045044Q125.14375 78.045044 125.95625 78.888794Q126.78438 79.71692 126.78438 81.201294Q126.78438 82.40442 126.425 83.09192Q126.06563 83.77942 125.3625 84.170044Q124.675 84.545044 123.8625 84.545044Q122.56563 84.545044 121.75313 83.71692Q120.95625 82.87317 120.95625 81.295044ZM122.03438 81.295044Q122.03438 82.482544 122.55 83.076294Q123.08125 83.670044 123.8625 83.670044Q124.65938 83.670044 125.175 83.076294Q125.69063 82.482544 125.69063 81.263794Q125.69063 80.107544 125.15938 79.513794Q124.64375 78.920044 123.8625 78.920044Q123.08125 78.920044 122.55 79.513794Q122.03438 80.09192 122.03438 81.295044ZM128.34688 84.40442L128.34688 75.81067L129.40938 75.81067L129.40938 80.71692L131.89375 78.18567L133.26875 78.18567L130.87813 80.482544L133.50313 84.40442L132.20625 84.40442L130.14375 81.21692L129.40938 81.93567L129.40938 84.40442L128.34688 84.40442ZM138.59688 82.40442L139.69063 82.52942Q139.44063 83.482544 138.7375 84.013794Q138.03438 84.545044 136.95625 84.545044Q135.59688 84.545044 134.78438 83.701294Q133.9875 82.857544 133.9875 81.34192Q133.9875 79.77942 134.8 78.920044Q135.6125 78.045044 136.89375 78.045044Q138.14375 78.045044 138.925 78.888794Q139.72188 79.732544 139.72188 81.27942Q139.72188 81.37317 139.72188 81.56067L135.08125 81.56067Q135.14375 82.59192 135.65938 83.138794Q136.175 83.670044 136.95625 83.670044Q137.53438 83.670044 137.94063 83.37317Q138.3625 83.06067 138.59688 82.40442ZM135.14375 80.701294L138.6125 80.701294Q138.55 79.90442 138.22188 79.513794Q137.70625 78.90442 136.90938 78.90442Q136.175 78.90442 135.675 79.388794Q135.19063 79.87317 135.14375 80.701294ZM140.925 82.545044L141.95625 82.388794Q142.05 83.013794 142.44063 83.34192Q142.84688 83.670044 143.58125 83.670044Q144.3 83.670044 144.64375 83.388794Q145.00313 83.09192 145.00313 82.68567Q145.00313 82.326294 144.69063 82.12317Q144.47188 81.982544 143.6125 81.763794Q142.45625 81.46692 142.00313 81.263794Q141.56563 81.045044 141.33125 80.670044Q141.09688 80.295044 141.09688 79.826294Q141.09688 79.420044 141.28438 79.06067Q141.47188 78.701294 141.8 78.46692Q142.05 78.295044 142.47188 78.170044Q142.89375 78.045044 143.39375 78.045044Q144.1125 78.045044 144.65938 78.263794Q145.22188 78.46692 145.4875 78.826294Q145.75313 79.18567 145.84688 79.77942L144.81563 79.920044Q144.75313 79.451294 144.40938 79.18567Q144.08125 78.90442 143.45625 78.90442Q142.7375 78.90442 142.425 79.15442Q142.1125 79.388794 142.1125 79.71692Q142.1125 79.920044 142.2375 80.076294Q142.37813 80.24817 142.64375 80.357544Q142.8 80.420044 143.58125 80.62317Q144.70625 80.93567 145.14375 81.12317Q145.58125 81.31067 145.83125 81.670044Q146.08125 82.02942 146.08125 82.576294Q146.08125 83.107544 145.76875 83.576294Q145.47188 84.02942 144.89375 84.295044Q144.31563 84.545044 143.58125 84.545044Q142.3625 84.545044 141.72188 84.045044Q141.09688 83.52942 140.925 82.545044Z" fill-rule="nonzero"/><path fill="#000000" d="M74.47188 122.16406L74.47188 113.57031L77.44063 113.57031Q78.44063 113.57031 78.97188 113.69531Q79.70625 113.86719 80.22188 114.30469Q80.90938 114.88281 81.2375 115.78906Q81.58125 116.67969 81.58125 117.82031Q81.58125 118.80469 81.34688 119.55469Q81.12813 120.30469 80.76875 120.80469Q80.40938 121.30469 79.97188 121.58594Q79.55 121.86719 78.95625 122.02344Q78.3625 122.16406 77.58125 122.16406L74.47188 122.16406ZM75.6125 121.14844L77.44063 121.14844Q78.3 121.14844 78.78438 120.99219Q79.26875 120.83594 79.55 120.53906Q79.95625 120.14844 80.175 119.46094Q80.40938 118.77344 80.40938 117.80469Q80.40938 116.46094 79.95625 115.74219Q79.51875 115.00781 78.89375 114.75781Q78.425 114.58594 77.425 114.58594L75.6125 114.58594L75.6125 121.14844ZM87.40938 121.39844Q86.81563 121.89844 86.26875 122.10156Q85.7375 122.30469 85.1125 122.30469Q84.08125 122.30469 83.53438 121.80469Q82.9875 121.30469 82.9875 120.52344Q82.9875 120.07031 83.19063 119.69531Q83.39375 119.30469 83.7375 119.08594Q84.08125 118.85156 84.50313 118.74219Q84.8 118.64844 85.44063 118.57031Q86.70625 118.42969 87.31563 118.21094Q87.31563 117.99219 87.31563 117.94531Q87.31563 117.28906 87.01875 117.02344Q86.6125 116.67969 85.81563 116.67969Q85.08125 116.67969 84.72188 116.94531Q84.3625 117.19531 84.19063 117.85156L83.15938 117.71094Q83.3 117.05469 83.62813 116.64844Q83.95625 116.24219 84.56563 116.02344Q85.175 115.80469 85.97188 115.80469Q86.76875 115.80469 87.26875 115.99219Q87.76875 116.17969 88.00313 116.46094Q88.2375 116.74219 88.33125 117.17969Q88.37813 117.44531 88.37813 118.14844L88.37813 119.55469Q88.37813 121.02344 88.44063 121.41406Q88.51875 121.80469 88.72188 122.16406L87.6125 122.16406Q87.45625 121.83594 87.40938 121.39844ZM87.31563 119.03906Q86.7375 119.27344 85.59688 119.44531Q84.94063 119.53906 84.675 119.66406Q84.40938 119.77344 84.25313 119.99219Q84.1125 120.21094 84.1125 120.49219Q84.1125 120.91406 84.425 121.19531Q84.75313 121.47656 85.3625 121.47656Q85.97188 121.47656 86.44063 121.21094Q86.925 120.94531 87.14375 120.47656Q87.31563 120.11719 87.31563 119.42969L87.31563 119.03906ZM92.06563 122.16406L89.70625 115.94531L90.81563 115.94531L92.15938 119.66406Q92.3625 120.27344 92.55 120.91406Q92.69063 120.42969 92.94063 119.74219L94.33125 115.94531L95.40938 115.94531L93.05 122.16406L92.06563 122.16406ZM95.34688 114.78906L95.34688 113.57031L96.40938 113.57031L96.40938 114.78906L95.34688 114.78906ZM95.34688 122.16406L95.34688 115.94531L96.40938 115.94531L96.40938 122.16406L95.34688 122.16406ZM102.37813 122.16406L102.37813 121.38281Q101.78438 122.30469 100.64375 122.30469Q99.89375 122.30469 99.26875 121.89844Q98.64375 121.47656 98.3 120.74219Q97.95625 120.00781 97.95625 119.05469Q97.95625 118.13281 98.26875 117.36719Q98.58125 116.60156 99.20625 116.21094Q99.83125 115.80469 100.59688 115.80469Q101.15938 115.80469 101.59688 116.03906Q102.03438 116.27344 102.31563 116.64844L102.31563 113.57031L103.3625 113.57031L103.3625 122.16406L102.37813 122.16406ZM99.05 119.05469Q99.05 120.25781 99.55 120.85156Q100.05 121.42969 100.7375 121.42969Q101.425 121.42969 101.90938 120.86719Q102.39375 120.30469 102.39375 119.14844Q102.39375 117.86719 101.89375 117.27344Q101.40938 116.67969 100.69063 116.67969Q99.9875 116.67969 99.51875 117.25781Q99.05 117.82031 99.05 119.05469ZM109.97188 122.16406L107.69063 113.57031L108.8625 113.57031L110.175 119.21094Q110.37813 120.08594 110.53438 120.96094Q110.8625 119.58594 110.925 119.36719L112.55 113.57031L113.925 113.57031L115.15938 117.91406Q115.6125 119.53906 115.83125 120.96094Q115.9875 120.14844 116.25313 119.08594L117.59688 113.57031L118.7375 113.57031L116.39375 122.16406L115.28438 122.16406L113.4875 115.61719Q113.25313 114.80469 113.20625 114.61719Q113.08125 115.19531 112.95625 115.61719L111.14375 122.16406L109.97188 122.16406ZM123.40938 121.39844Q122.81563 121.89844 122.26875 122.10156Q121.7375 122.30469 121.1125 122.30469Q120.08125 122.30469 119.53438 121.80469Q118.9875 121.30469 118.9875 120.52344Q118.9875 120.07031 119.19063 119.69531Q119.39375 119.30469 119.7375 119.08594Q120.08125 118.85156 120.50313 118.74219Q120.8 118.64844 121.44063 118.57031Q122.70625 118.42969 123.31563 118.21094Q123.31563 117.99219 123.31563 117.94531Q123.31563 117.28906 123.01875 117.02344Q122.6125 116.67969 121.81563 116.67969Q121.08125 116.67969 120.72188 116.94531Q120.3625 117.19531 120.19063 117.85156L119.15938 117.71094Q119.3 117.05469 119.62813 116.64844Q119.95625 116.24219 120.56563 116.02344Q121.175 115.80469 121.97188 115.80469Q122.76875 115.80469 123.26875 115.99219Q123.76875 116.17969 124.00313 116.46094Q124.2375 116.74219 124.33125 117.17969Q124.37813 117.44531 124.37813 118.14844L124.37813 119.55469Q124.37813 121.02344 124.44063 121.41406Q124.51875 121.80469 124.72188 122.16406L123.6125 122.16406Q123.45625 121.83594 123.40938 121.39844ZM123.31563 119.03906Q122.7375 119.27344 121.59688 119.44531Q120.94063 119.53906 120.675 119.66406Q120.40938 119.77344 120.25313 119.99219Q120.1125 120.21094 120.1125 120.49219Q120.1125 120.91406 120.425 121.19531Q120.75313 121.47656 121.3625 121.47656Q121.97188 121.47656 122.44063 121.21094Q122.925 120.94531 123.14375 120.47656Q123.31563 120.11719 123.31563 119.42969L123.31563 119.03906ZM126.33125 122.16406L126.33125 115.94531L127.28438 115.94531L127.28438 116.88281Q127.64375 116.22656 127.94063 116.02344Q128.25313 115.80469 128.62813 115.80469Q129.15938 115.80469 129.70625 116.13281L129.34688 117.11719Q128.95625 116.88281 128.58125 116.88281Q128.22188 116.88281 127.94063 117.10156Q127.675 117.30469 127.56563 117.67969Q127.37813 118.24219 127.37813 118.89844L127.37813 122.16406L126.33125 122.16406ZM130.34688 122.16406L130.34688 115.94531L131.28438 115.94531L131.28438 116.82031Q131.97188 115.80469 133.26875 115.80469Q133.83125 115.80469 134.3 116.00781Q134.78438 116.21094 135.01875 116.53906Q135.25313 116.86719 135.34688 117.30469Q135.39375 117.60156 135.39375 118.33594L135.39375 122.16406L134.34688 122.16406L134.34688 118.38281Q134.34688 117.72656 134.22188 117.41406Q134.09688 117.10156 133.78438 116.91406Q133.47188 116.71094 133.05 116.71094Q132.37813 116.71094 131.87813 117.14844Q131.39375 117.57031 131.39375 118.75781L131.39375 122.16406L130.34688 122.16406ZM141.59688 120.16406L142.69063 120.28906Q142.44063 121.24219 141.7375 121.77344Q141.03438 122.30469 139.95625 122.30469Q138.59688 122.30469 137.78438 121.46094Q136.9875 120.61719 136.9875 119.10156Q136.9875 117.53906 137.8 116.67969Q138.6125 115.80469 139.89375 115.80469Q141.14375 115.80469 141.925 116.64844Q142.72188 117.49219 142.72188 119.03906Q142.72188 119.13281 142.72188 119.32031L138.08125 119.32031Q138.14375 120.35156 138.65938 120.89844Q139.175 121.42969 139.95625 121.42969Q140.53438 121.42969 140.94063 121.13281Q141.3625 120.82031 141.59688 120.16406ZM138.14375 118.46094L141.6125 118.46094Q141.55 117.66406 141.22188 117.27344Q140.70625 116.66406 139.90938 116.66406Q139.175 116.66406 138.675 117.14844Q138.19063 117.63281 138.14375 118.46094ZM144.33125 122.16406L144.33125 115.94531L145.28438 115.94531L145.28438 116.88281Q145.64375 116.22656 145.94063 116.02344Q146.25313 115.80469 146.62813 115.80469Q147.15938 115.80469 147.70625 116.13281L147.34688 117.11719Q146.95625 116.88281 146.58125 116.88281Q146.22188 116.88281 145.94063 117.10156Q145.675 117.30469 145.56563 117.67969Q145.37813 118.24219 145.37813 118.89844L145.37813 122.16406L144.33125 122.16406Z" fill-rule="nonzero"/><path fill="#000000" d="M78.53438 159.92369L81.83125 151.32994L83.05 151.32994L86.56563 159.92369L85.28438 159.92369L84.26875 157.31432L80.69063 157.31432L79.7375 159.92369L78.53438 159.92369ZM81.01875 156.39244L83.925 156.39244L83.03438 154.01744Q82.6125 152.93932 82.425 152.23619Q82.25313 153.06432 81.95625 153.87682L81.01875 156.39244ZM86.31563 159.92369L86.31563 151.32994L87.37813 151.32994L87.37813 159.92369L86.31563 159.92369ZM89.34688 152.54869L89.34688 151.32994L90.40938 151.32994L90.40938 152.54869L89.34688 152.54869ZM89.34688 159.92369L89.34688 153.70494L90.40938 153.70494L90.40938 159.92369L89.34688 159.92369ZM91.925 158.06432L92.95625 157.90807Q93.05 158.53307 93.44063 158.86119Q93.84688 159.18932 94.58125 159.18932Q95.3 159.18932 95.64375 158.90807Q96.00313 158.61119 96.00313 158.20494Q96.00313 157.84557 95.69063 157.64244Q95.47188 157.50182 94.6125 157.28307Q93.45625 156.98619 93.00313 156.78307Q92.56563 156.56432 92.33125 156.18932Q92.09688 155.81432 92.09688 155.34557Q92.09688 154.93932 92.28438 154.57994Q92.47188 154.22057 92.8 153.98619Q93.05 153.81432 93.47188 153.68932Q93.89375 153.56432 94.39375 153.56432Q95.1125 153.56432 95.65938 153.78307Q96.22188 153.98619 96.4875 154.34557Q96.75313 154.70494 96.84688 155.29869L95.81563 155.43932Q95.75313 154.97057 95.40938 154.70494Q95.08125 154.42369 94.45625 154.42369Q93.7375 154.42369 93.425 154.67369Q93.1125 154.90807 93.1125 155.23619Q93.1125 155.43932 93.2375 155.59557Q93.37813 155.76744 93.64375 155.87682Q93.8 155.93932 94.58125 156.14244Q95.70625 156.45494 96.14375 156.64244Q96.58125 156.82994 96.83125 157.18932Q97.08125 157.54869 97.08125 158.09557Q97.08125 158.62682 96.76875 159.09557Q96.47188 159.54869 95.89375 159.81432Q95.31563 160.06432 94.58125 160.06432Q93.3625 160.06432 92.72188 159.56432Q92.09688 159.04869 91.925 158.06432ZM101.64375 158.98619L101.8 159.90807Q101.34688 160.00182 101.00313 160.00182Q100.425 160.00182 100.1125 159.82994Q99.8 159.64244 99.65938 159.34557Q99.53438 159.04869 99.53438 158.09557L99.53438 154.51744L98.76875 154.51744L98.76875 153.70494L99.53438 153.70494L99.53438 152.15807L100.58125 151.53307L100.58125 153.70494L101.64375 153.70494L101.64375 154.51744L100.58125 154.51744L100.58125 158.15807Q100.58125 158.61119 100.62813 158.73619Q100.69063 158.86119 100.81563 158.93932Q100.94063 159.01744 101.175 159.01744Q101.3625 159.01744 101.64375 158.98619ZM106.40938 159.15807Q105.81563 159.65807 105.26875 159.86119Q104.7375 160.06432 104.1125 160.06432Q103.08125 160.06432 102.53438 159.56432Q101.9875 159.06432 101.9875 158.28307Q101.9875 157.82994 102.19063 157.45494Q102.39375 157.06432 102.7375 156.84557Q103.08125 156.61119 103.50313 156.50182Q103.8 156.40807 104.44063 156.32994Q105.70625 156.18932 106.31563 155.97057Q106.31563 155.75182 106.31563 155.70494Q106.31563 155.04869 106.01875 154.78307Q105.6125 154.43932 104.81563 154.43932Q104.08125 154.43932 103.72188 154.70494Q103.3625 154.95494 103.19063 155.61119L102.15938 155.47057Q102.3 154.81432 102.62813 154.40807Q102.95625 154.00182 103.56563 153.78307Q104.175 153.56432 104.97188 153.56432Q105.76875 153.56432 106.26875 153.75182Q106.76875 153.93932 107.00313 154.22057Q107.2375 154.50182 107.33125 154.93932Q107.37813 155.20494 107.37813 155.90807L107.37813 157.31432Q107.37813 158.78307 107.44063 159.17369Q107.51875 159.56432 107.72188 159.92369L106.6125 159.92369Q106.45625 159.59557 106.40938 159.15807ZM106.31563 156.79869Q105.7375 157.03307 104.59688 157.20494Q103.94063 157.29869 103.675 157.42369Q103.40938 157.53307 103.25313 157.75182Q103.1125 157.97057 103.1125 158.25182Q103.1125 158.67369 103.425 158.95494Q103.75313 159.23619 104.3625 159.23619Q104.97188 159.23619 105.44063 158.97057Q105.925 158.70494 106.14375 158.23619Q106.31563 157.87682 106.31563 157.18932L106.31563 156.79869ZM109.34688 152.54869L109.34688 151.32994L110.40938 151.32994L110.40938 152.54869L109.34688 152.54869ZM109.34688 159.92369L109.34688 153.70494L110.40938 153.70494L110.40938 159.92369L109.34688 159.92369ZM112.33125 159.92369L112.33125 153.70494L113.28438 153.70494L113.28438 154.64244Q113.64375 153.98619 113.94063 153.78307Q114.25313 153.56432 114.62813 153.56432Q115.15938 153.56432 115.70625 153.89244L115.34688 154.87682Q114.95625 154.64244 114.58125 154.64244Q114.22188 154.64244 113.94063 154.86119Q113.675 155.06432 113.56563 155.43932Q113.37813 156.00182 113.37813 156.65807L113.37813 159.92369L112.33125 159.92369ZM125.6125 156.90807L126.7375 157.20494Q126.37813 158.59557 125.45625 159.32994Q124.53438 160.06432 123.19063 160.06432Q121.8 160.06432 120.925 159.50182Q120.05 158.93932 119.59688 157.87682Q119.14375 156.79869 119.14375 155.56432Q119.14375 154.22057 119.65938 153.22057Q120.175 152.22057 121.1125 151.70494Q122.06563 151.18932 123.20625 151.18932Q124.4875 151.18932 125.3625 151.84557Q126.25313 152.50182 126.59688 153.68932L125.47188 153.95494Q125.175 153.01744 124.59688 152.59557Q124.03438 152.15807 123.175 152.15807Q122.19063 152.15807 121.51875 152.64244Q120.8625 153.11119 120.58125 153.90807Q120.31563 154.70494 120.31563 155.56432Q120.31563 156.65807 120.62813 157.47057Q120.95625 158.28307 121.62813 158.68932Q122.3 159.09557 123.09688 159.09557Q124.05 159.09557 124.70625 158.54869Q125.37813 158.00182 125.6125 156.90807ZM127.95625 156.81432Q127.95625 155.07994 128.90938 154.25182Q129.70625 153.56432 130.8625 153.56432Q132.14375 153.56432 132.95625 154.40807Q133.78438 155.23619 133.78438 156.72057Q133.78438 157.92369 133.425 158.61119Q133.06563 159.29869 132.3625 159.68932Q131.675 160.06432 130.8625 160.06432Q129.56563 160.06432 128.75313 159.23619Q127.95625 158.39244 127.95625 156.81432ZM129.03438 156.81432Q129.03438 158.00182 129.55 158.59557Q130.08125 159.18932 130.8625 159.18932Q131.65938 159.18932 132.175 158.59557Q132.69063 158.00182 132.69063 156.78307Q132.69063 155.62682 132.15938 155.03307Q131.64375 154.43932 130.8625 154.43932Q130.08125 154.43932 129.55 155.03307Q129.03438 155.61119 129.03438 156.81432ZM134.95625 156.81432Q134.95625 155.07994 135.90938 154.25182Q136.70625 153.56432 137.8625 153.56432Q139.14375 153.56432 139.95625 154.40807Q140.78438 155.23619 140.78438 156.72057Q140.78438 157.92369 140.425 158.61119Q140.06563 159.29869 139.3625 159.68932Q138.675 160.06432 137.8625 160.06432Q136.56563 160.06432 135.75313 159.23619Q134.95625 158.39244 134.95625 156.81432ZM136.03438 156.81432Q136.03438 158.00182 136.55 158.59557Q137.08125 159.18932 137.8625 159.18932Q138.65938 159.18932 139.175 158.59557Q139.69063 158.00182 139.69063 156.78307Q139.69063 155.62682 139.15938 155.03307Q138.64375 154.43932 137.8625 154.43932Q137.08125 154.43932 136.55 155.03307Q136.03438 155.61119 136.03438 156.81432ZM142.34688 159.92369L142.34688 151.32994L143.40938 151.32994L143.40938 156.23619L145.89375 153.70494L147.26875 153.70494L144.87813 156.00182L147.50313 159.92369L146.20625 159.92369L144.14375 156.73619L143.40938 157.45494L143.40938 159.92369L142.34688 159.92369Z" fill-rule="nonzero"/><path fill="#000000" d="M80.65938 197.68333L80.65938 190.10521L77.83125 190.10521L77.83125 189.08958L84.64375 189.08958L84.64375 190.10521L81.8 190.10521L81.8 197.68333L80.65938 197.68333ZM84.95625 194.57396Q84.95625 192.83958 85.90938 192.01146Q86.70625 191.32396 87.8625 191.32396Q89.14375 191.32396 89.95625 192.16771Q90.78438 192.99583 90.78438 194.48021Q90.78438 195.68333 90.425 196.37083Q90.06563 197.05833 89.3625 197.44896Q88.675 197.82396 87.8625 197.82396Q86.56563 197.82396 85.75313 196.99583Q84.95625 196.15208 84.95625 194.57396ZM86.03438 194.57396Q86.03438 195.76146 86.55 196.35521Q87.08125 196.94896 87.8625 196.94896Q88.65938 196.94896 89.175 196.35521Q89.69063 195.76146 89.69063 194.54271Q89.69063 193.38646 89.15938 192.79271Q88.64375 192.19896 87.8625 192.19896Q87.08125 192.19896 86.55 192.79271Q86.03438 193.37083 86.03438 194.57396ZM92.34688 197.68333L92.34688 191.46458L93.28438 191.46458L93.28438 192.33958Q93.58125 191.87083 94.06563 191.60521Q94.55 191.32396 95.175 191.32396Q95.8625 191.32396 96.3 191.60521Q96.75313 191.88646 96.925 192.40208Q97.675 191.32396 98.84688 191.32396Q99.78438 191.32396 100.26875 191.83958Q100.76875 192.33958 100.76875 193.41771L100.76875 197.68333L99.72188 197.68333L99.72188 193.76146Q99.72188 193.13646 99.6125 192.85521Q99.51875 192.57396 99.25313 192.40208Q98.9875 192.23021 98.6125 192.23021Q97.95625 192.23021 97.51875 192.66771Q97.09688 193.10521 97.09688 194.07396L97.09688 197.68333L96.03438 197.68333L96.03438 193.63646Q96.03438 192.93333 95.76875 192.58958Q95.51875 192.23021 94.94063 192.23021Q94.4875 192.23021 94.1125 192.46458Q93.7375 192.69896 93.56563 193.15208Q93.39375 193.60521 93.39375 194.44896L93.39375 197.68333L92.34688 197.68333ZM106.425 197.68333L106.425 189.08958L107.56563 189.08958L107.56563 196.66771L111.8 196.66771L111.8 197.68333L106.425 197.68333ZM117.40938 196.91771Q116.81563 197.41771 116.26875 197.62083Q115.7375 197.82396 115.1125 197.82396Q114.08125 197.82396 113.53438 197.32396Q112.9875 196.82396 112.9875 196.04271Q112.9875 195.58958 113.19063 195.21458Q113.39375 194.82396 113.7375 194.60521Q114.08125 194.37083 114.50313 194.26146Q114.8 194.16771 115.44063 194.08958Q116.70625 193.94896 117.31563 193.73021Q117.31563 193.51146 117.31563 193.46458Q117.31563 192.80833 117.01875 192.54271Q116.6125 192.19896 115.81563 192.19896Q115.08125 192.19896 114.72188 192.46458Q114.3625 192.71458 114.19063 193.37083L113.15938 193.23021Q113.3 192.57396 113.62813 192.16771Q113.95625 191.76146 114.56563 191.54271Q115.175 191.32396 115.97188 191.32396Q116.76875 191.32396 117.26875 191.51146Q117.76875 191.69896 118.00313 191.98021Q118.2375 192.26146 118.33125 192.69896Q118.37813 192.96458 118.37813 193.66771L118.37813 195.07396Q118.37813 196.54271 118.44063 196.93333Q118.51875 197.32396 118.72188 197.68333L117.6125 197.68333Q117.45625 197.35521 117.40938 196.91771ZM117.31563 194.55833Q116.7375 194.79271 115.59688 194.96458Q114.94063 195.05833 114.675 195.18333Q114.40938 195.29271 114.25313 195.51146Q114.1125 195.73021 114.1125 196.01146Q114.1125 196.43333 114.425 196.71458Q114.75313 196.99583 115.3625 196.99583Q115.97188 196.99583 116.44063 196.73021Q116.925 196.46458 117.14375 195.99583Q117.31563 195.63646 117.31563 194.94896L117.31563 194.55833ZM122.64375 196.74583L122.8 197.66771Q122.34688 197.76146 122.00313 197.76146Q121.425 197.76146 121.1125 197.58958Q120.8 197.40208 120.65938 197.10521Q120.53438 196.80833 120.53438 195.85521L120.53438 192.27708L119.76875 192.27708L119.76875 191.46458L120.53438 191.46458L120.53438 189.91771L121.58125 189.29271L121.58125 191.46458L122.64375 191.46458L122.64375 192.27708L121.58125 192.27708L121.58125 195.91771Q121.58125 196.37083 121.62813 196.49583Q121.69063 196.62083 121.81563 196.69896Q121.94063 196.77708 122.175 196.77708Q122.3625 196.77708 122.64375 196.74583ZM123.34688 197.68333L123.34688 189.08958L124.39375 189.08958L124.39375 192.16771Q125.12813 191.32396 126.25313 191.32396Q126.95625 191.32396 127.45625 191.60521Q127.97188 191.87083 128.19063 192.35521Q128.40938 192.82396 128.40938 193.74583L128.40938 197.68333L127.3625 197.68333L127.3625 193.74583Q127.3625 192.94896 127.01875 192.58958Q126.675 192.23021 126.05 192.23021Q125.58125 192.23021 125.15938 192.48021Q124.75313 192.71458 124.56563 193.13646Q124.39375 193.54271 124.39375 194.27708L124.39375 197.68333L123.34688 197.68333ZM134.40938 196.91771Q133.81563 197.41771 133.26875 197.62083Q132.7375 197.82396 132.1125 197.82396Q131.08125 197.82396 130.53438 197.32396Q129.9875 196.82396 129.9875 196.04271Q129.9875 195.58958 130.19063 195.21458Q130.39375 194.82396 130.7375 194.60521Q131.08125 194.37083 131.50313 194.26146Q131.8 194.16771 132.44063 194.08958Q133.70625 193.94896 134.31563 193.73021Q134.31563 193.51146 134.31563 193.46458Q134.31563 192.80833 134.01875 192.54271Q133.6125 192.19896 132.81563 192.19896Q132.08125 192.19896 131.72188 192.46458Q131.3625 192.71458 131.19063 193.37083L130.15938 193.23021Q130.3 192.57396 130.62813 192.16771Q130.95625 191.76146 131.56563 191.54271Q132.175 191.32396 132.97188 191.32396Q133.76875 191.32396 134.26875 191.51146Q134.76875 191.69896 135.00313 191.98021Q135.2375 192.26146 135.33125 192.69896Q135.37813 192.96458 135.37813 193.66771L135.37813 195.07396Q135.37813 196.54271 135.44063 196.93333Q135.51875 197.32396 135.72188 197.68333L134.6125 197.68333Q134.45625 197.35521 134.40938 196.91771ZM134.31563 194.55833Q133.7375 194.79271 132.59688 194.96458Q131.94063 195.05833 131.675 195.18333Q131.40938 195.29271 131.25313 195.51146Q131.1125 195.73021 131.1125 196.01146Q131.1125 196.43333 131.425 196.71458Q131.75313 196.99583 132.3625 196.99583Q132.97188 196.99583 133.44063 196.73021Q133.925 196.46458 134.14375 195.99583Q134.31563 195.63646 134.31563 194.94896L134.31563 194.55833ZM137.34688 197.68333L137.34688 191.46458L138.28438 191.46458L138.28438 192.33958Q138.58125 191.87083 139.06563 191.60521Q139.55 191.32396 140.175 191.32396Q140.8625 191.32396 141.3 191.60521Q141.75313 191.88646 141.925 192.40208Q142.675 191.32396 143.84688 191.32396Q144.78438 191.32396 145.26875 191.83958Q145.76875 192.33958 145.76875 193.41771L145.76875 197.68333L144.72188 197.68333L144.72188 193.76146Q144.72188 193.13646 144.6125 192.85521Q144.51875 192.57396 144.25313 192.40208Q143.9875 192.23021 143.6125 192.23021Q142.95625 192.23021 142.51875 192.66771Q142.09688 193.10521 142.09688 194.07396L142.09688 197.68333L141.03438 197.68333L141.03438 193.63646Q141.03438 192.93333 140.76875 192.58958Q140.51875 192.23021 139.94063 192.23021Q139.4875 192.23021 139.1125 192.46458Q138.7375 192.69896 138.56563 193.15208Q138.39375 193.60521 138.39375 194.44896L138.39375 197.68333L137.34688 197.68333Z" fill-rule="nonzero"/><path fill="#000000" d="M83.09688 232.67735L84.15938 232.5836Q84.2375 233.23985 84.51875 233.6461Q84.8 234.05235 85.37813 234.31798Q85.97188 234.56798 86.70625 234.56798Q87.34688 234.56798 87.84688 234.38048Q88.34688 234.17735 88.58125 233.84923Q88.83125 233.50548 88.83125 233.11485Q88.83125 232.7086 88.59688 232.41173Q88.3625 232.09923 87.83125 231.8961Q87.47188 231.75548 86.28438 231.47423Q85.1125 231.19298 84.64375 230.94298Q84.01875 230.61485 83.72188 230.1461Q83.425 229.66173 83.425 229.06798Q83.425 228.42735 83.78438 227.86485Q84.15938 227.28673 84.8625 227.00548Q85.58125 226.7086 86.44063 226.7086Q87.39375 226.7086 88.12813 227.0211Q88.8625 227.31798 89.25313 227.92735Q89.64375 228.5211 89.675 229.2711L88.58125 229.34923Q88.4875 228.53673 87.97188 228.13048Q87.47188 227.7086 86.4875 227.7086Q85.45625 227.7086 84.9875 228.0836Q84.51875 228.4586 84.51875 228.98985Q84.51875 229.4586 84.84688 229.75548Q85.175 230.05235 86.55 230.36485Q87.94063 230.67735 88.45625 230.91173Q89.20625 231.2711 89.56563 231.80235Q89.925 232.31798 89.925 233.0211Q89.925 233.7086 89.53438 234.31798Q89.14375 234.91173 88.40938 235.25548Q87.675 235.5836 86.75313 235.5836Q85.58125 235.5836 84.78438 235.25548Q84.00313 234.91173 83.55 234.22423Q83.1125 233.53673 83.09688 232.67735ZM93.64375 234.50548L93.8 235.42735Q93.34688 235.5211 93.00313 235.5211Q92.425 235.5211 92.1125 235.34923Q91.8 235.16173 91.65938 234.86485Q91.53438 234.56798 91.53438 233.61485L91.53438 230.03673L90.76875 230.03673L90.76875 229.22423L91.53438 229.22423L91.53438 227.67735L92.58125 227.05235L92.58125 229.22423L93.64375 229.22423L93.64375 230.03673L92.58125 230.03673L92.58125 233.67735Q92.58125 234.13048 92.62813 234.25548Q92.69063 234.38048 92.81563 234.4586Q92.94063 234.53673 93.175 234.53673Q93.3625 234.53673 93.64375 234.50548ZM98.59688 233.44298L99.69063 233.56798Q99.44063 234.5211 98.7375 235.05235Q98.03438 235.5836 96.95625 235.5836Q95.59688 235.5836 94.78438 234.73985Q93.9875 233.8961 93.9875 232.38048Q93.9875 230.81798 94.8 229.9586Q95.6125 229.0836 96.89375 229.0836Q98.14375 229.0836 98.925 229.92735Q99.72188 230.7711 99.72188 232.31798Q99.72188 232.41173 99.72188 232.59923L95.08125 232.59923Q95.14375 233.63048 95.65938 234.17735Q96.175 234.7086 96.95625 234.7086Q97.53438 234.7086 97.94063 234.41173Q98.3625 234.09923 98.59688 233.44298ZM95.14375 231.73985L98.6125 231.73985Q98.55 230.94298 98.22188 230.55235Q97.70625 229.94298 96.90938 229.94298Q96.175 229.94298 95.675 230.42735Q95.19063 230.91173 95.14375 231.73985ZM103.06563 235.44298L100.70625 229.22423L101.81563 229.22423L103.15938 232.94298Q103.3625 233.55235 103.55 234.19298Q103.69063 233.7086 103.94063 233.0211L105.33125 229.22423L106.40938 229.22423L104.05 235.44298L103.06563 235.44298ZM110.59688 233.44298L111.69063 233.56798Q111.44063 234.5211 110.7375 235.05235Q110.03438 235.5836 108.95625 235.5836Q107.59688 235.5836 106.78438 234.73985Q105.9875 233.8961 105.9875 232.38048Q105.9875 230.81798 106.8 229.9586Q107.6125 229.0836 108.89375 229.0836Q110.14375 229.0836 110.925 229.92735Q111.72188 230.7711 111.72188 232.31798Q111.72188 232.41173 111.72188 232.59923L107.08125 232.59923Q107.14375 233.63048 107.65938 234.17735Q108.175 234.7086 108.95625 234.7086Q109.53438 234.7086 109.94063 234.41173Q110.3625 234.09923 110.59688 233.44298ZM107.14375 231.73985L110.6125 231.73985Q110.55 230.94298 110.22188 230.55235Q109.70625 229.94298 108.90938 229.94298Q108.175 229.94298 107.675 230.42735Q107.19063 230.91173 107.14375 231.73985ZM116.09688 232.67735L117.15938 232.5836Q117.2375 233.23985 117.51875 233.6461Q117.8 234.05235 118.37813 234.31798Q118.97188 234.56798 119.70625 234.56798Q120.34688 234.56798 120.84688 234.38048Q121.34688 234.17735 121.58125 233.84923Q121.83125 233.50548 121.83125 233.11485Q121.83125 232.7086 121.59688 232.41173Q121.3625 232.09923 120.83125 231.8961Q120.47188 231.75548 119.28438 231.47423Q118.1125 231.19298 117.64375 230.94298Q117.01875 230.61485 116.72188 230.1461Q116.425 229.66173 116.425 229.06798Q116.425 228.42735 116.78438 227.86485Q117.15938 227.28673 117.8625 227.00548Q118.58125 226.7086 119.44063 226.7086Q120.39375 226.7086 121.12813 227.0211Q121.8625 227.31798 122.25313 227.92735Q122.64375 228.5211 122.675 229.2711L121.58125 229.34923Q121.4875 228.53673 120.97188 228.13048Q120.47188 227.7086 119.4875 227.7086Q118.45625 227.7086 117.9875 228.0836Q117.51875 228.4586 117.51875 228.98985Q117.51875 229.4586 117.84688 229.75548Q118.175 230.05235 119.55 230.36485Q120.94063 230.67735 121.45625 230.91173Q122.20625 231.2711 122.56563 231.80235Q122.925 232.31798 122.925 233.0211Q122.925 233.7086 122.53438 234.31798Q122.14375 234.91173 121.40938 235.25548Q120.675 235.5836 119.75313 235.5836Q118.58125 235.5836 117.78438 235.25548Q117.00313 234.91173 116.55 234.22423Q116.1125 233.53673 116.09688 232.67735ZM124.34688 235.44298L124.34688 229.22423L125.28438 229.22423L125.28438 230.09923Q125.58125 229.63048 126.06563 229.36485Q126.55 229.0836 127.175 229.0836Q127.8625 229.0836 128.3 229.36485Q128.75313 229.6461 128.925 230.16173Q129.675 229.0836 130.84688 229.0836Q131.78438 229.0836 132.26875 229.59923Q132.76875 230.09923 132.76875 231.17735L132.76875 235.44298L131.72188 235.44298L131.72188 231.5211Q131.72188 230.8961 131.6125 230.61485Q131.51875 230.3336 131.25313 230.16173Q130.9875 229.98985 130.6125 229.98985Q129.95625 229.98985 129.51875 230.42735Q129.09688 230.86485 129.09688 231.8336L129.09688 235.44298L128.03438 235.44298L128.03438 231.3961Q128.03438 230.69298 127.76875 230.34923Q127.51875 229.98985 126.94063 229.98985Q126.4875 229.98985 126.1125 230.22423Q125.7375 230.4586 125.56563 230.91173Q125.39375 231.36485 125.39375 232.2086L125.39375 235.44298L124.34688 235.44298ZM135.34688 228.06798L135.34688 226.84923L136.40938 226.84923L136.40938 228.06798L135.34688 228.06798ZM135.34688 235.44298L135.34688 229.22423L136.40938 229.22423L136.40938 235.44298L135.34688 235.44298ZM140.64375 234.50548L140.8 235.42735Q140.34688 235.5211 140.00313 235.5211Q139.425 235.5211 139.1125 235.34923Q138.8 235.16173 138.65938 234.86485Q138.53438 234.56798 138.53438 233.61485L138.53438 230.03673L137.76875 230.03673L137.76875 229.22423L138.53438 229.22423L138.53438 227.67735L139.58125 227.05235L139.58125 229.22423L140.64375 229.22423L140.64375 230.03673L139.58125 230.03673L139.58125 233.67735Q139.58125 234.13048 139.62813 234.25548Q139.69063 234.38048 139.81563 234.4586Q139.94063 234.53673 140.175 234.53673Q140.3625 234.53673 140.64375 234.50548ZM141.34688 235.44298L141.34688 226.84923L142.39375 226.84923L142.39375 229.92735Q143.12813 229.0836 144.25313 229.0836Q144.95625 229.0836 145.45625 229.36485Q145.97188 229.63048 146.19063 230.11485Q146.40938 230.5836 146.40938 231.50548L146.40938 235.44298L145.3625 235.44298L145.3625 231.50548Q145.3625 230.7086 145.01875 230.34923Q144.675 229.98985 144.05 229.98985Q143.58125 229.98985 143.15938 230.23985Q142.75313 230.47423 142.56563 230.8961Q142.39375 231.30235 142.39375 232.03673L142.39375 235.44298L141.34688 235.44298Z" fill-rule="nonzero"/><path fill="#000000" d="M51.425 273.2026L51.425 264.60886L52.565624 264.60886L52.565624 268.87448L56.83125 264.60886L58.378124 264.60886L54.76875 268.09323L58.534374 273.2026L57.034374 273.2026L53.971874 268.85886L52.565624 270.21823L52.565624 273.2026L51.425 273.2026ZM59.33125 273.2026L59.33125 266.98386L60.284374 266.98386L60.284374 267.92136Q60.64375 267.2651 60.940624 267.06198Q61.253124 266.84323 61.628124 266.84323Q62.159374 266.84323 62.70625 267.17136L62.346874 268.15573Q61.95625 267.92136 61.58125 267.92136Q61.221874 267.92136 60.940624 268.1401Q60.675 268.34323 60.565624 268.71823Q60.378124 269.28073 60.378124 269.93698L60.378124 273.2026L59.33125 273.2026ZM67.40938 272.43698Q66.81563 272.93698 66.26875 273.1401Q65.7375 273.34323 65.1125 273.34323Q64.08125 273.34323 63.534374 272.84323Q62.9875 272.34323 62.9875 271.56198Q62.9875 271.10886 63.190624 270.73386Q63.39375 270.34323 63.7375 270.12448Q64.08125 269.8901 64.50313 269.78073Q64.8 269.68698 65.44063 269.60886Q66.70625 269.46823 67.31563 269.24948Q67.31563 269.03073 67.31563 268.98386Q67.31563 268.3276 67.01875 268.06198Q66.6125 267.71823 65.81563 267.71823Q65.08125 267.71823 64.72188 267.98386Q64.3625 268.23386 64.19063 268.8901L63.159374 268.74948Q63.3 268.09323 63.628124 267.68698Q63.95625 267.28073 64.56563 267.06198Q65.175 266.84323 65.97188 266.84323Q66.76875 266.84323 67.26875 267.03073Q67.76875 267.21823 68.00313 267.49948Q68.2375 267.78073 68.33125 268.21823Q68.37813 268.48386 68.37813 269.18698L68.37813 270.59323Q68.37813 272.06198 68.44063 272.4526Q68.51875 272.84323 68.72188 273.2026L67.6125 273.2026Q67.45625 272.87448 67.40938 272.43698ZM67.31563 270.0776Q66.7375 270.31198 65.59688 270.48386Q64.94063 270.5776 64.675 270.7026Q64.40938 270.81198 64.25313 271.03073Q64.1125 271.24948 64.1125 271.53073Q64.1125 271.9526 64.425 272.23386Q64.75313 272.5151 65.3625 272.5151Q65.97188 272.5151 66.44063 272.24948Q66.925 271.98386 67.14375 271.5151Q67.31563 271.15573 67.31563 270.46823L67.31563 270.0776ZM70.34688 265.8276L70.34688 264.60886L71.40938 264.60886L71.40938 265.8276L70.34688 265.8276ZM70.34688 273.2026L70.34688 266.98386L71.40938 266.98386L71.40938 273.2026L70.34688 273.2026ZM73.14375 273.71823L74.175 273.87448Q74.2375 274.34323 74.53438 274.56198Q74.925 274.85886 75.59688 274.85886Q76.33125 274.85886 76.72188 274.56198Q77.12813 274.2651 77.26875 273.74948Q77.3625 273.42136 77.34688 272.3901Q76.65938 273.2026 75.62813 273.2026Q74.34688 273.2026 73.64375 272.28073Q72.94063 271.34323 72.94063 270.06198Q72.94063 269.17136 73.25313 268.42136Q73.58125 267.65573 74.19063 267.24948Q74.8 266.84323 75.62813 266.84323Q76.7375 266.84323 77.45625 267.73386L77.45625 266.98386L78.425 266.98386L78.425 272.35886Q78.425 273.81198 78.12813 274.42136Q77.83125 275.03073 77.19063 275.37448Q76.55 275.73386 75.6125 275.73386Q74.50313 275.73386 73.81563 275.23386Q73.12813 274.73386 73.14375 273.71823ZM74.01875 269.98386Q74.01875 271.2026 74.50313 271.7651Q74.9875 272.3276 75.72188 272.3276Q76.45625 272.3276 76.94063 271.7651Q77.44063 271.2026 77.44063 270.0151Q77.44063 268.87448 76.925 268.29636Q76.425 267.71823 75.70625 267.71823Q75.00313 267.71823 74.50313 268.29636Q74.01875 268.85886 74.01875 269.98386ZM80.14375 273.71823L81.175 273.87448Q81.2375 274.34323 81.53438 274.56198Q81.925 274.85886 82.59688 274.85886Q83.33125 274.85886 83.72188 274.56198Q84.12813 274.2651 84.26875 273.74948Q84.3625 273.42136 84.34688 272.3901Q83.65938 273.2026 82.62813 273.2026Q81.34688 273.2026 80.64375 272.28073Q79.94063 271.34323 79.94063 270.06198Q79.94063 269.17136 80.25313 268.42136Q80.58125 267.65573 81.19063 267.24948Q81.8 266.84323 82.62813 266.84323Q83.7375 266.84323 84.45625 267.73386L84.45625 266.98386L85.425 266.98386L85.425 272.35886Q85.425 273.81198 85.12813 274.42136Q84.83125 275.03073 84.19063 275.37448Q83.55 275.73386 82.6125 275.73386Q81.50313 275.73386 80.81563 275.23386Q80.12813 274.73386 80.14375 273.71823ZM81.01875 269.98386Q81.01875 271.2026 81.50313 271.7651Q81.9875 272.3276 82.72188 272.3276Q83.45625 272.3276 83.94063 271.7651Q84.44063 271.2026 84.44063 270.0151Q84.44063 268.87448 83.925 268.29636Q83.425 267.71823 82.70625 267.71823Q82.00313 267.71823 81.50313 268.29636Q81.01875 268.85886 81.01875 269.98386ZM90.425 273.2026L90.425 264.60886L93.65938 264.60886Q94.64375 264.60886 95.2375 264.87448Q95.83125 265.1401 96.15938 265.68698Q96.50313 266.21823 96.50313 266.81198Q96.50313 267.35886 96.20625 267.84323Q95.90938 268.3276 95.3 268.62448Q96.08125 268.85886 96.4875 269.42136Q96.90938 269.96823 96.90938 270.71823Q96.90938 271.31198 96.65938 271.84323Q96.40938 272.35886 96.03438 272.6401Q95.65938 272.92136 95.08125 273.06198Q94.51875 273.2026 93.70625 273.2026L90.425 273.2026ZM91.56563 268.21823L93.425 268.21823Q94.175 268.21823 94.50313 268.12448Q94.94063 267.99948 95.15938 267.7026Q95.37813 267.3901 95.37813 266.93698Q95.37813 266.5151 95.175 266.18698Q94.97188 265.85886 94.58125 265.74948Q94.20625 265.62448 93.28438 265.62448L91.56563 265.62448L91.56563 268.21823ZM91.56563 272.18698L93.70625 272.18698Q94.25313 272.18698 94.47188 272.1401Q94.87813 272.0776 95.12813 271.92136Q95.39375 271.74948 95.56563 271.43698Q95.7375 271.12448 95.7375 270.71823Q95.7375 270.23386 95.4875 269.87448Q95.25313 269.5151 94.81563 269.37448Q94.37813 269.23386 93.55 269.23386L91.56563 269.23386L91.56563 272.18698ZM98.33125 273.2026L98.33125 266.98386L99.28438 266.98386L99.28438 267.92136Q99.64375 267.2651 99.94063 267.06198Q100.25313 266.84323 100.62813 266.84323Q101.15938 266.84323 101.70625 267.17136L101.34688 268.15573Q100.95625 267.92136 100.58125 267.92136Q100.22188 267.92136 99.94063 268.1401Q99.675 268.34323 99.56563 268.71823Q99.37813 269.28073 99.37813 269.93698L99.37813 273.2026L98.33125 273.2026ZM106.40938 272.43698Q105.81563 272.93698 105.26875 273.1401Q104.7375 273.34323 104.1125 273.34323Q103.08125 273.34323 102.53438 272.84323Q101.9875 272.34323 101.9875 271.56198Q101.9875 271.10886 102.19063 270.73386Q102.39375 270.34323 102.7375 270.12448Q103.08125 269.8901 103.50313 269.78073Q103.8 269.68698 104.44063 269.60886Q105.70625 269.46823 106.31563 269.24948Q106.31563 269.03073 106.31563 268.98386Q106.31563 268.3276 106.01875 268.06198Q105.6125 267.71823 104.81563 267.71823Q104.08125 267.71823 103.72188 267.98386Q103.3625 268.23386 103.19063 268.8901L102.15938 268.74948Q102.3 268.09323 102.62813 267.68698Q102.95625 267.28073 103.56563 267.06198Q104.175 266.84323 104.97188 266.84323Q105.76875 266.84323 106.26875 267.03073Q106.76875 267.21823 107.00313 267.49948Q107.2375 267.78073 107.33125 268.21823Q107.37813 268.48386 107.37813 269.18698L107.37813 270.59323Q107.37813 272.06198 107.44063 272.4526Q107.51875 272.84323 107.72188 273.2026L106.6125 273.2026Q106.45625 272.87448 106.40938 272.43698ZM106.31563 270.0776Q105.7375 270.31198 104.59688 270.48386Q103.94063 270.5776 103.675 270.7026Q103.40938 270.81198 103.25313 271.03073Q103.1125 271.24948 103.1125 271.53073Q103.1125 271.9526 103.425 272.23386Q103.75313 272.5151 104.3625 272.5151Q104.97188 272.5151 105.44063 272.24948Q105.925 271.98386 106.14375 271.5151Q106.31563 271.15573 106.31563 270.46823L106.31563 270.0776ZM111.64375 272.2651L111.8 273.18698Q111.34688 273.28073 111.00313 273.28073Q110.425 273.28073 110.1125 273.10886Q109.8 272.92136 109.65938 272.62448Q109.53438 272.3276 109.53438 271.37448L109.53438 267.79636L108.76875 267.79636L108.76875 266.98386L109.53438 266.98386L109.53438 265.43698L110.58125 264.81198L110.58125 266.98386L111.64375 266.98386L111.64375 267.79636L110.58125 267.79636L110.58125 271.43698Q110.58125 271.8901 110.62813 272.0151Q110.69063 272.1401 110.81563 272.21823Q110.94063 272.29636 111.175 272.29636Q111.3625 272.29636 111.64375 272.2651ZM112.34688 273.2026L112.34688 264.60886L113.39375 264.60886L113.39375 267.68698Q114.12813 266.84323 115.25313 266.84323Q115.95625 266.84323 116.45625 267.12448Q116.97188 267.3901 117.19063 267.87448Q117.40938 268.34323 117.40938 269.2651L117.40938 273.2026L116.3625 273.2026L116.3625 269.2651Q116.3625 268.46823 116.01875 268.10886Q115.675 267.74948 115.05 267.74948Q114.58125 267.74948 114.15938 267.99948Q113.75313 268.23386 113.56563 268.65573Q113.39375 269.06198 113.39375 269.79636L113.39375 273.2026L112.34688 273.2026ZM120.4875 273.2026L118.58125 266.98386L119.675 266.98386L120.65938 270.5776L121.03438 271.90573Q121.06563 271.81198 121.3625 270.62448L122.34688 266.98386L123.425 266.98386L124.3625 270.59323L124.675 271.78073L125.03438 270.5776L126.09688 266.98386L127.12813 266.98386L125.175 273.2026L124.08125 273.2026L123.09688 269.46823L122.84688 268.42136L121.59688 273.2026L120.4875 273.2026ZM132.40938 272.43698Q131.81563 272.93698 131.26875 273.1401Q130.7375 273.34323 130.1125 273.34323Q129.08125 273.34323 128.53438 272.84323Q127.9875 272.34323 127.9875 271.56198Q127.9875 271.10886 128.19063 270.73386Q128.39375 270.34323 128.7375 270.12448Q129.08125 269.8901 129.50313 269.78073Q129.8 269.68698 130.44063 269.60886Q131.70625 269.46823 132.31563 269.24948Q132.31563 269.03073 132.31563 268.98386Q132.31563 268.3276 132.01875 268.06198Q131.6125 267.71823 130.81563 267.71823Q130.08125 267.71823 129.72188 267.98386Q129.3625 268.23386 129.19063 268.8901L128.15938 268.74948Q128.3 268.09323 128.62813 267.68698Q128.95625 267.28073 129.56563 267.06198Q130.175 266.84323 130.97188 266.84323Q131.76875 266.84323 132.26875 267.03073Q132.76875 267.21823 133.00313 267.49948Q133.2375 267.78073 133.33125 268.21823Q133.37813 268.48386 133.37813 269.18698L133.37813 270.59323Q133.37813 272.06198 133.44063 272.4526Q133.51875 272.84323 133.72188 273.2026L132.6125 273.2026Q132.45625 272.87448 132.40938 272.43698ZM132.31563 270.0776Q131.7375 270.31198 130.59688 270.48386Q129.94063 270.5776 129.675 270.7026Q129.40938 270.81198 129.25313 271.03073Q129.1125 271.24948 129.1125 271.53073Q129.1125 271.9526 129.425 272.23386Q129.75313 272.5151 130.3625 272.5151Q130.97188 272.5151 131.44063 272.24948Q131.925 271.98386 132.14375 271.5151Q132.31563 271.15573 132.31563 270.46823L132.31563 270.0776ZM135.34688 265.8276L135.34688 264.60886L136.40938 264.60886L136.40938 265.8276L135.34688 265.8276ZM135.34688 273.2026L135.34688 266.98386L136.40938 266.98386L136.40938 273.2026L135.34688 273.2026ZM140.64375 272.2651L140.8 273.18698Q140.34688 273.28073 140.00313 273.28073Q139.425 273.28073 139.1125 273.10886Q138.8 272.92136 138.65938 272.62448Q138.53438 272.3276 138.53438 271.37448L138.53438 267.79636L137.76875 267.79636L137.76875 266.98386L138.53438 266.98386L138.53438 265.43698L139.58125 264.81198L139.58125 266.98386L140.64375 266.98386L140.64375 267.79636L139.58125 267.79636L139.58125 271.43698Q139.58125 271.8901 139.62813 272.0151Q139.69063 272.1401 139.81563 272.21823Q139.94063 272.29636 140.175 272.29636Q140.3625 272.29636 140.64375 272.2651ZM145.59688 271.2026L146.69063 271.3276Q146.44063 272.28073 145.7375 272.81198Q145.03438 273.34323 143.95625 273.34323Q142.59688 273.34323 141.78438 272.49948Q140.9875 271.65573 140.9875 270.1401Q140.9875 268.5776 141.8 267.71823Q142.6125 266.84323 143.89375 266.84323Q145.14375 266.84323 145.925 267.68698Q146.72188 268.53073 146.72188 270.0776Q146.72188 270.17136 146.72188 270.35886L142.08125 270.35886Q142.14375 271.3901 142.65938 271.93698Q143.175 272.46823 143.95625 272.46823Q144.53438 272.46823 144.94063 272.17136Q145.3625 271.85886 145.59688 271.2026ZM142.14375 269.49948L145.6125 269.49948Q145.55 268.7026 145.22188 268.31198Q144.70625 267.7026 143.90938 267.7026Q143.175 267.7026 142.675 268.18698Q142.19063 268.67136 142.14375 269.49948Z" fill-rule="nonzero"/><path fill="#000000" d="M55.89375 308.52475L56.925 308.38412Q56.95625 309.3685 57.284374 309.72787Q57.6125 310.08725 58.20625 310.08725Q58.628124 310.08725 58.940624 309.89975Q59.253124 309.69662 59.3625 309.3685Q59.4875 309.02475 59.4875 308.29037L59.4875 302.3685L60.6125 302.3685L60.6125 308.22787Q60.6125 309.306 60.346874 309.89975Q60.096874 310.4935 59.534374 310.806Q58.971874 311.10287 58.20625 311.10287Q57.08125 311.10287 56.471874 310.46225Q55.878124 309.806 55.89375 308.52475ZM62.346874 303.58725L62.346874 302.3685L63.409374 302.3685L63.409374 303.58725L62.346874 303.58725ZM62.346874 310.96225L62.346874 304.7435L63.409374 304.7435L63.409374 310.96225L62.346874 310.96225ZM65.34688 310.96225L65.34688 304.7435L66.28438 304.7435L66.28438 305.6185Q66.58125 305.14975 67.06563 304.88412Q67.55 304.60287 68.175 304.60287Q68.8625 304.60287 69.3 304.88412Q69.75313 305.16537 69.925 305.681Q70.675 304.60287 71.84688 304.60287Q72.78438 304.60287 73.26875 305.1185Q73.76875 305.6185 73.76875 306.69662L73.76875 310.96225L72.72188 310.96225L72.72188 307.04037Q72.72188 306.41537 72.6125 306.13412Q72.51875 305.85287 72.25313 305.681Q71.9875 305.50912 71.6125 305.50912Q70.95625 305.50912 70.51875 305.94662Q70.09688 306.38412 70.09688 307.35287L70.09688 310.96225L69.03438 310.96225L69.03438 306.91537Q69.03438 306.21225 68.76875 305.8685Q68.51875 305.50912 67.94063 305.50912Q67.4875 305.50912 67.1125 305.7435Q66.7375 305.97787 66.56563 306.431Q66.39375 306.88412 66.39375 307.72787L66.39375 310.96225L65.34688 310.96225ZM76.34688 310.96225L76.34688 304.7435L77.28438 304.7435L77.28438 305.6185Q77.58125 305.14975 78.06563 304.88412Q78.55 304.60287 79.175 304.60287Q79.8625 304.60287 80.3 304.88412Q80.75313 305.16537 80.925 305.681Q81.675 304.60287 82.84688 304.60287Q83.78438 304.60287 84.26875 305.1185Q84.76875 305.6185 84.76875 306.69662L84.76875 310.96225L83.72188 310.96225L83.72188 307.04037Q83.72188 306.41537 83.6125 306.13412Q83.51875 305.85287 83.25313 305.681Q82.9875 305.50912 82.6125 305.50912Q81.95625 305.50912 81.51875 305.94662Q81.09688 306.38412 81.09688 307.35287L81.09688 310.96225L80.03438 310.96225L80.03438 306.91537Q80.03438 306.21225 79.76875 305.8685Q79.51875 305.50912 78.94063 305.50912Q78.4875 305.50912 78.1125 305.7435Q77.7375 305.97787 77.56563 306.431Q77.39375 306.88412 77.39375 307.72787L77.39375 310.96225L76.34688 310.96225ZM87.3 313.35287L87.175 312.3685Q87.51875 312.46225 87.78438 312.46225Q88.12813 312.46225 88.33125 312.33725Q88.55 312.22787 88.69063 312.02475Q88.78438 311.85287 89.01875 311.22787Q89.03438 311.14975 89.1125 310.97787L86.7375 304.7435L87.87813 304.7435L89.175 308.33725Q89.425 309.02475 89.62813 309.79037Q89.81563 309.056 90.06563 308.3685L91.39375 304.7435L92.44063 304.7435L90.08125 311.07162Q89.69063 312.08725 89.4875 312.47787Q89.20625 313.00912 88.83125 313.2435Q88.47188 313.4935 87.97188 313.4935Q87.675 313.4935 87.3 313.35287ZM94.53438 310.96225L97.83125 302.3685L99.05 302.3685L102.56563 310.96225L101.28438 310.96225L100.26875 308.35287L96.69063 308.35287L95.7375 310.96225L94.53438 310.96225ZM97.01875 307.431L99.925 307.431L99.03438 305.056Q98.6125 303.97787 98.425 303.27475Q98.25313 304.10287 97.95625 304.91537L97.01875 307.431ZM102.34688 310.96225L102.34688 304.7435L103.28438 304.7435L103.28438 305.6185Q103.97188 304.60287 105.26875 304.60287Q105.83125 304.60287 106.3 304.806Q106.78438 305.00912 107.01875 305.33725Q107.25313 305.66537 107.34688 306.10287Q107.39375 306.39975 107.39375 307.13412L107.39375 310.96225L106.34688 310.96225L106.34688 307.181Q106.34688 306.52475 106.22188 306.21225Q106.09688 305.89975 105.78438 305.71225Q105.47188 305.50912 105.05 305.50912Q104.37813 305.50912 103.87813 305.94662Q103.39375 306.3685 103.39375 307.556L103.39375 310.96225L102.34688 310.96225ZM113.37813 310.96225L113.37813 310.181Q112.78438 311.10287 111.64375 311.10287Q110.89375 311.10287 110.26875 310.69662Q109.64375 310.27475 109.3 309.54037Q108.95625 308.806 108.95625 307.85287Q108.95625 306.931 109.26875 306.16537Q109.58125 305.39975 110.20625 305.00912Q110.83125 304.60287 111.59688 304.60287Q112.15938 304.60287 112.59688 304.83725Q113.03438 305.07162 113.31563 305.44662L113.31563 302.3685L114.3625 302.3685L114.3625 310.96225L113.37813 310.96225ZM110.05 307.85287Q110.05 309.056 110.55 309.64975Q111.05 310.22787 111.7375 310.22787Q112.425 310.22787 112.90938 309.66537Q113.39375 309.10287 113.39375 307.94662Q113.39375 306.66537 112.89375 306.07162Q112.40938 305.47787 111.69063 305.47787Q110.9875 305.47787 110.51875 306.056Q110.05 306.6185 110.05 307.85287ZM120.59688 308.96225L121.69063 309.08725Q121.44063 310.04037 120.7375 310.57162Q120.03438 311.10287 118.95625 311.10287Q117.59688 311.10287 116.78438 310.25912Q115.9875 309.41537 115.9875 307.89975Q115.9875 306.33725 116.8 305.47787Q117.6125 304.60287 118.89375 304.60287Q120.14375 304.60287 120.925 305.44662Q121.72188 306.29037 121.72188 307.83725Q121.72188 307.931 121.72188 308.1185L117.08125 308.1185Q117.14375 309.14975 117.65938 309.69662Q118.175 310.22787 118.95625 310.22787Q119.53438 310.22787 119.94063 309.931Q120.3625 309.6185 120.59688 308.96225ZM117.14375 307.25912L120.6125 307.25912Q120.55 306.46225 120.22188 306.07162Q119.70625 305.46225 118.90938 305.46225Q118.175 305.46225 117.675 305.94662Q117.19063 306.431 117.14375 307.25912ZM123.33125 310.96225L123.33125 304.7435L124.28438 304.7435L124.28438 305.681Q124.64375 305.02475 124.94063 304.82162Q125.25313 304.60287 125.62813 304.60287Q126.15938 304.60287 126.70625 304.931L126.34688 305.91537Q125.95625 305.681 125.58125 305.681Q125.22188 305.681 124.94063 305.89975Q124.675 306.10287 124.56563 306.47787Q124.37813 307.04037 124.37813 307.69662L124.37813 310.96225L123.33125 310.96225ZM126.925 309.10287L127.95625 308.94662Q128.05 309.57162 128.44063 309.89975Q128.84688 310.22787 129.58125 310.22787Q130.3 310.22787 130.64375 309.94662Q131.00313 309.64975 131.00313 309.2435Q131.00313 308.88412 130.69063 308.681Q130.47188 308.54037 129.6125 308.32162Q128.45625 308.02475 128.00313 307.82162Q127.56563 307.60287 127.33125 307.22787Q127.09688 306.85287 127.09688 306.38412Q127.09688 305.97787 127.28438 305.6185Q127.47188 305.25912 127.8 305.02475Q128.05 304.85287 128.47188 304.72787Q128.89375 304.60287 129.39375 304.60287Q130.1125 304.60287 130.65938 304.82162Q131.22188 305.02475 131.4875 305.38412Q131.75313 305.7435 131.84688 306.33725L130.81563 306.47787Q130.75313 306.00912 130.40938 305.7435Q130.08125 305.46225 129.45625 305.46225Q128.7375 305.46225 128.425 305.71225Q128.1125 305.94662 128.1125 306.27475Q128.1125 306.47787 128.2375 306.63412Q128.37813 306.806 128.64375 306.91537Q128.8 306.97787 129.58125 307.181Q130.70625 307.4935 131.14375 307.681Q131.58125 307.8685 131.83125 308.22787Q132.08125 308.58725 132.08125 309.13412Q132.08125 309.66537 131.76875 310.13412Q131.47188 310.58725 130.89375 310.85287Q130.31563 311.10287 129.58125 311.10287Q128.3625 311.10287 127.72188 310.60287Q127.09688 310.08725 126.925 309.10287ZM133.95625 307.85287Q133.95625 306.1185 134.90938 305.29037Q135.70625 304.60287 136.8625 304.60287Q138.14375 304.60287 138.95625 305.44662Q139.78438 306.27475 139.78438 307.75912Q139.78438 308.96225 139.425 309.64975Q139.06563 310.33725 138.3625 310.72787Q137.675 311.10287 136.8625 311.10287Q135.56563 311.10287 134.75313 310.27475Q133.95625 309.431 133.95625 307.85287ZM135.03438 307.85287Q135.03438 309.04037 135.55 309.63412Q136.08125 310.22787 136.8625 310.22787Q137.65938 310.22787 138.175 309.63412Q138.69063 309.04037 138.69063 307.82162Q138.69063 306.66537 138.15938 306.07162Q137.64375 305.47787 136.8625 305.47787Q136.08125 305.47787 135.55 306.07162Q135.03438 306.64975 135.03438 307.85287ZM141.34688 310.96225L141.34688 304.7435L142.28438 304.7435L142.28438 305.6185Q142.97188 304.60287 144.26875 304.60287Q144.83125 304.60287 145.3 304.806Q145.78438 305.00912 146.01875 305.33725Q146.25313 305.66537 146.34688 306.10287Q146.39375 306.39975 146.39375 307.13412L146.39375 310.96225L145.34688 310.96225L145.34688 307.181Q145.34688 306.52475 145.22188 306.21225Q145.09688 305.89975 144.78438 305.71225Q144.47188 305.50912 144.05 305.50912Q143.37813 305.50912 142.87813 305.94662Q142.39375 306.3685 142.39375 307.556L142.39375 310.96225L141.34688 310.96225Z" fill-rule="nonzero"/><path fill="#000000" d="M150.55 345.21564Q150.55 343.6844 150.8625 342.7625Q151.175 341.825 151.78438 341.325Q152.40938 340.825 153.34688 340.825Q154.03438 340.825 154.55 341.10626Q155.08125 341.3875 155.425 341.91876Q155.76875 342.4344 155.95625 343.1844Q156.14375 343.9344 156.14375 345.21564Q156.14375 346.73126 155.83125 347.65314Q155.53438 348.575 154.90938 349.09064Q154.3 349.59064 153.34688 349.59064Q152.1125 349.59064 151.39375 348.7Q150.55 347.6375 150.55 345.21564ZM151.62813 345.21564Q151.62813 347.325 152.12813 348.02814Q152.62813 348.73126 153.34688 348.73126Q154.08125 348.73126 154.56563 348.02814Q155.06563 347.325 155.06563 345.21564Q155.06563 343.09064 154.56563 342.40314Q154.08125 341.7 153.33125 341.7Q152.6125 341.7 152.175 342.3094Q151.62813 343.09064 151.62813 345.21564Z" fill-rule="nonzero"/><path fill="#000000" d="M227.41354 348.4344L227.41354 349.45L221.72604 349.45Q221.72604 349.075 221.85104 348.71564Q222.0698 348.1375 222.53854 347.575Q223.02292 347.0125 223.92917 346.27814Q225.33542 345.1219 225.8198 344.45Q226.3198 343.77814 226.3198 343.1844Q226.3198 342.5594 225.86667 342.1375Q225.41354 341.7 224.6948 341.7Q223.92917 341.7 223.47604 342.15314Q223.02292 342.60626 223.0073 343.41876L221.92917 343.3094Q222.03854 342.09064 222.7573 341.46564Q223.49167 340.825 224.72604 340.825Q225.96042 340.825 226.67917 341.5125Q227.39792 342.2 227.39792 343.21564Q227.39792 343.73126 227.17917 344.23126Q226.97604 344.71564 226.47604 345.27814Q225.99167 345.825 224.86667 346.77814Q223.91354 347.575 223.6323 347.8719Q223.36667 348.15314 223.1948 348.4344L227.41354 348.4344Z" fill-rule="nonzero"/><path fill="#000000" d="M296.55832 349.45L296.55832 347.3875L292.83957 347.3875L292.83957 346.41876L296.76144 340.85626L297.62082 340.85626L297.62082 346.41876L298.77707 346.41876L298.77707 347.3875L297.62082 347.3875L297.62082 349.45L296.55832 349.45ZM296.55832 346.41876L296.55832 342.5594L293.87082 346.41876L296.55832 346.41876Z" fill-rule="nonzero"/><path fill="#000000" d="M369.96875 342.96564L368.92188 343.04376Q368.78125 342.41876 368.53125 342.1375Q368.09375 341.6844 367.46875 341.6844Q366.96875 341.6844 366.57812 341.96564Q366.09375 342.34064 365.79688 343.04376Q365.51562 343.73126 365.5 345.0125Q365.875 344.4344 366.42188 344.15314Q366.98438 343.8719 367.59375 343.8719Q368.64062 343.8719 369.375 344.65314Q370.125 345.4344 370.125 346.65314Q370.125 347.46564 369.76562 348.16876Q369.42188 348.85626 368.8125 349.23126Q368.20312 349.59064 367.4375 349.59064Q366.10938 349.59064 365.28125 348.6219Q364.45312 347.65314 364.45312 345.4344Q364.45312 342.9344 365.375 341.8094Q366.17188 340.825 367.53125 340.825Q368.54688 340.825 369.1875 341.40314Q369.84375 341.96564 369.96875 342.96564ZM365.67188 346.66876Q365.67188 347.21564 365.89062 347.71564Q366.125 348.2 366.53125 348.46564Q366.95312 348.73126 367.42188 348.73126Q368.07812 348.73126 368.5625 348.2Q369.04688 347.65314 369.04688 346.73126Q369.04688 345.84064 368.5625 345.325Q368.09375 344.8094 367.375 344.8094Q366.65625 344.8094 366.15625 345.325Q365.67188 345.84064 365.67188 346.66876Z" fill-rule="nonzero"/><path fill="#000000" d="M437.44168 344.79376Q436.78543 344.54376 436.4573 344.10626Q436.1448 343.65314 436.1448 343.04376Q436.1448 342.10626 436.81668 341.46564Q437.50418 340.825 438.61356 340.825Q439.73856 340.825 440.42606 341.48126Q441.11356 342.1375 441.11356 343.075Q441.11356 343.66876 440.80106 344.10626Q440.48856 344.54376 439.84793 344.79376Q440.6448 345.04376 441.05106 345.6219Q441.4573 346.2 441.4573 346.9969Q441.4573 348.09064 440.67606 348.84064Q439.91043 349.59064 438.62918 349.59064Q437.36356 349.59064 436.5823 348.84064Q435.80106 348.09064 435.80106 346.96564Q435.80106 346.1219 436.22293 345.5594Q436.66043 344.9969 437.44168 344.79376ZM437.22293 342.9969Q437.22293 343.60626 437.61356 343.9969Q438.0198 344.3875 438.6448 344.3875Q439.25418 344.3875 439.6448 344.0125Q440.03543 343.6219 440.03543 343.0594Q440.03543 342.48126 439.62918 342.09064Q439.22293 341.6844 438.62918 341.6844Q438.0198 341.6844 437.61356 342.075Q437.22293 342.46564 437.22293 342.9969ZM436.8948 346.96564Q436.8948 347.41876 437.09793 347.84064Q437.31668 348.2625 437.73856 348.4969Q438.16043 348.73126 438.6448 348.73126Q439.3948 348.73126 439.87918 348.2469Q440.37918 347.7625 440.37918 347.0125Q440.37918 346.2469 439.87918 345.7469Q439.37918 345.2469 438.61356 345.2469Q437.86356 345.2469 437.37918 345.7469Q436.8948 346.23126 436.8948 346.96564Z" fill-rule="nonzero"/><path fill="#000000" d="M507.60208 349.45L506.5552 349.45L506.5552 342.73126Q506.16458 343.09064 505.53958 343.46564Q504.9302 343.825 504.44583 343.9969L504.44583 342.98126Q505.32083 342.5594 505.97708 341.98126Q506.64896 341.3875 506.9302 340.825L507.60208 340.825L507.60208 349.45ZM510.63333 345.21564Q510.63333 343.6844 510.94583 342.7625Q511.25833 341.825 511.8677 341.325Q512.4927 340.825 513.4302 340.825Q514.1177 340.825 514.6333 341.10626Q515.16455 341.3875 515.5083 341.91876Q515.85205 342.4344 516.03955 343.1844Q516.22705 343.9344 516.22705 345.21564Q516.22705 346.73126 515.91455 347.65314Q515.6177 348.575 514.9927 349.09064Q514.3833 349.59064 513.4302 349.59064Q512.1958 349.59064 511.47708 348.7Q510.63333 347.6375 510.63333 345.21564ZM511.71146 345.21564Q511.71146 347.325 512.2114 348.02814Q512.7114 348.73126 513.4302 348.73126Q514.16455 348.73126 514.6489 348.02814Q515.1489 347.325 515.1489 345.21564Q515.1489 343.09064 514.6489 342.40314Q514.16455 341.7 513.41455 341.7Q512.6958 341.7 512.2583 342.3094Q511.71146 343.09064 511.71146 345.21564Z" fill-rule="nonzero"/><path fill="#000000" d="M578.91876 349.45L577.8719 349.45L577.8719 342.73126Q577.48126 343.09064 576.85626 343.46564Q576.2469 343.825 575.7625 343.9969L575.7625 342.98126Q576.6375 342.5594 577.29376 341.98126Q577.96564 341.3875 578.2469 340.825L578.91876 340.825L578.91876 349.45ZM587.4969 348.4344L587.4969 349.45L581.8094 349.45Q581.8094 349.075 581.9344 348.71564Q582.15314 348.1375 582.6219 347.575Q583.10626 347.0125 584.0125 346.27814Q585.41876 345.1219 585.90314 344.45Q586.40314 343.77814 586.40314 343.1844Q586.40314 342.5594 585.95 342.1375Q585.4969 341.7 584.77814 341.7Q584.0125 341.7 583.5594 342.15314Q583.10626 342.60626 583.09064 343.41876L582.0125 343.3094Q582.1219 342.09064 582.84064 341.46564Q583.575 340.825 584.8094 340.825Q586.04376 340.825 586.7625 341.5125Q587.48126 342.2 587.48126 343.21564Q587.48126 343.73126 587.2625 344.23126Q587.0594 344.71564 586.5594 345.27814Q586.075 345.825 584.95 346.77814Q583.9969 347.575 583.71564 347.8719Q583.45 348.15314 583.27814 348.4344L587.4969 348.4344Z" fill-rule="nonzero"/><path fill="#757575" d="M22.596874 37.55L18.8 23.2375L20.7375 23.2375L22.909374 32.6125Q23.26875 34.096874 23.51875 35.55Q24.065624 33.253124 24.159374 32.89375L26.89375 23.2375L29.175 23.2375L31.221874 30.471874Q32.003124 33.175 32.346874 35.55Q32.6125 34.190624 33.05 32.425L35.3 23.2375L37.20625 23.2375L33.284374 37.55L31.45625 37.55L28.440624 26.64375Q28.05 25.26875 27.9875 24.95625Q27.753124 25.940624 27.565624 26.64375L24.534374 37.55L22.596874 37.55ZM38.8625 37.55L38.8625 23.2375L40.628124 23.2375L40.628124 28.3625Q41.8625 26.940624 43.7375 26.940624Q44.878124 26.940624 45.721874 27.39375Q46.58125 27.846874 46.940624 28.659374Q47.315624 29.45625 47.315624 30.971874L47.315624 37.55L45.565624 37.55L45.565624 30.971874Q45.565624 29.659374 44.9875 29.065624Q44.409374 28.45625 43.378124 28.45625Q42.596874 28.45625 41.89375 28.8625Q41.20625 29.26875 40.909374 29.971874Q40.628124 30.659374 40.628124 31.878124L40.628124 37.55L38.8625 37.55ZM48.221874 32.3625Q48.221874 29.4875 49.815624 28.096874Q51.159374 26.940624 53.08125 26.940624Q55.221874 26.940624 56.565624 28.346874Q57.925 29.753124 57.925 32.221874Q57.925 34.221874 57.33125 35.378124Q56.7375 36.51875 55.58125 37.159374Q54.440624 37.784374 53.08125 37.784374Q50.89375 37.784374 49.55 36.39375Q48.221874 34.9875 48.221874 32.3625ZM50.01875 32.3625Q50.01875 34.3625 50.878124 35.346874Q51.753124 36.33125 53.08125 36.33125Q54.39375 36.33125 55.253124 35.346874Q56.128124 34.346874 56.128124 32.3Q56.128124 30.378124 55.253124 29.39375Q54.378124 28.39375 53.08125 28.39375Q51.753124 28.39375 50.878124 29.39375Q50.01875 30.378124 50.01875 32.3625ZM59.159374 34.45625L60.909374 34.175Q61.05 35.221874 61.721874 35.784374Q62.39375 36.33125 63.596874 36.33125Q64.8 36.33125 65.37813 35.846874Q65.97188 35.346874 65.97188 34.690624Q65.97188 34.096874 65.45625 33.753124Q65.09688 33.51875 63.659374 33.159374Q61.721874 32.659374 60.971874 32.315624Q60.2375 31.95625 59.846874 31.33125Q59.45625 30.690624 59.45625 29.925Q59.45625 29.2375 59.76875 28.64375Q60.096874 28.05 60.64375 27.659374Q61.05 27.3625 61.753124 27.159374Q62.471874 26.940624 63.284374 26.940624Q64.50313 26.940624 65.425 27.3Q66.34688 27.64375 66.78438 28.253124Q67.22188 28.846874 67.39375 29.846874L65.675 30.08125Q65.55 29.284374 64.9875 28.846874Q64.425 28.39375 63.409374 28.39375Q62.190624 28.39375 61.675 28.8Q61.159374 29.190624 61.159374 29.721874Q61.159374 30.065624 61.378124 30.346874Q61.58125 30.628124 62.05 30.815624Q62.315624 30.909374 63.596874 31.253124Q65.47188 31.753124 66.20625 32.08125Q66.94063 32.39375 67.3625 33.003124Q67.78438 33.596874 67.78438 34.503124Q67.78438 35.378124 67.26875 36.159374Q66.75313 36.940624 65.78438 37.3625Q64.81563 37.784374 63.596874 37.784374Q61.58125 37.784374 60.51875 36.940624Q59.45625 36.096874 59.159374 34.45625ZM76.97188 34.20625L78.78438 34.440624Q78.3625 36.01875 77.19063 36.909374Q76.03438 37.784374 74.22188 37.784374Q71.95625 37.784374 70.6125 36.39375Q69.28438 34.9875 69.28438 32.45625Q69.28438 29.83125 70.62813 28.39375Q71.97188 26.940624 74.12813 26.940624Q76.20625 26.940624 77.51875 28.3625Q78.84688 29.76875 78.84688 32.346874Q78.84688 32.503124 78.83125 32.815624L71.09688 32.815624Q71.19063 34.51875 72.06563 35.425Q72.94063 36.33125 74.2375 36.33125Q75.20625 36.33125 75.87813 35.83125Q76.56563 35.315624 76.97188 34.20625ZM71.19063 31.3625L76.9875 31.3625Q76.87813 30.065624 76.33125 29.409374Q75.4875 28.39375 74.14375 28.39375Q72.94063 28.39375 72.1125 29.20625Q71.28438 30.003124 71.19063 31.3625ZM88.78438 37.55L85.6125 27.175L87.425 27.175L89.08125 33.159374L89.69063 35.39375Q89.7375 35.221874 90.22188 33.253124L91.87813 27.175L93.69063 27.175L95.2375 33.190624L95.75313 35.175L96.34688 33.175L98.12813 27.175L99.83125 27.175L96.59688 37.55L94.76875 37.55L93.1125 31.33125L92.72188 29.565624L90.6125 37.55L88.78438 37.55ZM101.87813 25.253124L101.87813 23.2375L103.64375 23.2375L103.64375 25.253124L101.87813 25.253124ZM101.87813 37.55L101.87813 27.175L103.64375 27.175L103.64375 37.55L101.87813 37.55ZM112.64375 33.753124L114.3625 33.971874Q114.08125 35.76875 112.90938 36.784374Q111.75313 37.784374 110.05 37.784374Q107.925 37.784374 106.62813 36.39375Q105.33125 35.003124 105.33125 32.409374Q105.33125 30.721874 105.87813 29.471874Q106.44063 28.20625 107.58125 27.58125Q108.72188 26.940624 110.06563 26.940624Q111.75313 26.940624 112.81563 27.8Q113.89375 28.659374 114.20625 30.221874L112.4875 30.4875Q112.25313 29.440624 111.62813 28.925Q111.00313 28.39375 110.12813 28.39375Q108.8 28.39375 107.97188 29.346874Q107.14375 30.3 107.14375 32.346874Q107.14375 34.440624 107.94063 35.39375Q108.7375 36.33125 110.03438 36.33125Q111.06563 36.33125 111.75313 35.70625Q112.45625 35.065624 112.64375 33.753124ZM115.87813 37.55L115.87813 23.2375L117.64375 23.2375L117.64375 31.39375L121.8 27.175L124.06563 27.175L120.1125 31.01875L124.47188 37.55L122.3 37.55L118.87813 32.253124L117.64375 33.440624L117.64375 37.55L115.87813 37.55ZM132.97188 34.20625L134.78438 34.440624Q134.3625 36.01875 133.19063 36.909374Q132.03438 37.784374 130.22188 37.784374Q127.95625 37.784374 126.6125 36.39375Q125.28438 34.9875 125.28438 32.45625Q125.28438 29.83125 126.62813 28.39375Q127.97188 26.940624 130.12813 26.940624Q132.20625 26.940624 133.51875 28.3625Q134.84688 29.76875 134.84688 32.346874Q134.84688 32.503124 134.83125 32.815624L127.09688 32.815624Q127.19063 34.51875 128.06563 35.425Q128.94063 36.33125 130.2375 36.33125Q131.20625 36.33125 131.87813 35.83125Q132.56563 35.315624 132.97188 34.20625ZM127.19063 31.3625L132.9875 31.3625Q132.87813 30.065624 132.33125 29.409374Q131.4875 28.39375 130.14375 28.39375Q128.94063 28.39375 128.1125 29.20625Q127.28438 30.003124 127.19063 31.3625ZM140.70625 35.971874L140.95625 37.534374Q140.22188 37.690624 139.62813 37.690624Q138.675 37.690624 138.14375 37.39375Q137.62813 37.08125 137.40938 36.596874Q137.19063 36.096874 137.19063 34.51875L137.19063 28.55L135.90938 28.55L135.90938 27.175L137.19063 27.175L137.19063 24.6125L138.94063 23.55L138.94063 27.175L140.70625 27.175L140.70625 28.55L138.94063 28.55L138.94063 34.6125Q138.94063 35.3625 139.03438 35.58125Q139.12813 35.784374 139.33125 35.925Q139.55 36.05 139.94063 36.05Q140.22188 36.05 140.70625 35.971874ZM155.59688 37.55L155.59688 36.2375Q154.6125 37.784374 152.69063 37.784374Q151.45625 37.784374 150.40938 37.096874Q149.37813 36.409374 148.8 35.190624Q148.2375 33.971874 148.2375 32.378124Q148.2375 30.815624 148.75313 29.55Q149.26875 28.284374 150.3 27.6125Q151.34688 26.940624 152.6125 26.940624Q153.55 26.940624 154.28438 27.346874Q155.01875 27.7375 155.4875 28.3625L155.4875 23.2375L157.22188 23.2375L157.22188 37.55L155.59688 37.55ZM150.03438 32.378124Q150.03438 34.3625 150.87813 35.346874Q151.72188 36.33125 152.8625 36.33125Q154.01875 36.33125 154.81563 35.39375Q155.62813 34.45625 155.62813 32.51875Q155.62813 30.39375 154.8 29.39375Q153.9875 28.39375 152.78438 28.39375Q151.6125 28.39375 150.81563 29.3625Q150.03438 30.315624 150.03438 32.378124ZM159.87813 25.253124L159.87813 23.2375L161.64375 23.2375L161.64375 25.253124L159.87813 25.253124ZM159.87813 37.55L159.87813 27.175L161.64375 27.175L161.64375 37.55L159.87813 37.55ZM170.59688 37.55L170.59688 36.2375Q169.6125 37.784374 167.69063 37.784374Q166.45625 37.784374 165.40938 37.096874Q164.37813 36.409374 163.8 35.190624Q163.2375 33.971874 163.2375 32.378124Q163.2375 30.815624 163.75313 29.55Q164.26875 28.284374 165.3 27.6125Q166.34688 26.940624 167.6125 26.940624Q168.55 26.940624 169.28438 27.346874Q170.01875 27.7375 170.4875 28.3625L170.4875 23.2375L172.22188 23.2375L172.22188 37.55L170.59688 37.55ZM165.03438 32.378124Q165.03438 34.3625 165.87813 35.346874Q166.72188 36.33125 167.8625 36.33125Q169.01875 36.33125 169.81563 35.39375Q170.62813 34.45625 170.62813 32.51875Q170.62813 30.39375 169.8 29.39375Q168.9875 28.39375 167.78438 28.39375Q166.6125 28.39375 165.81563 29.3625Q165.03438 30.315624 165.03438 32.378124ZM179.51875 37.55L185.01875 23.2375L187.06563 23.2375L192.925 37.55L190.76875 37.55L189.09688 33.20625L183.1125 33.20625L181.53438 37.55L179.51875 37.55ZM183.65938 31.675L188.50313 31.675L187.01875 27.70625Q186.33125 25.89375 186.00313 24.7375Q185.72188 26.1125 185.22188 27.471874L183.65938 31.675ZM193.15938 34.45625L194.90938 34.175Q195.05 35.221874 195.72188 35.784374Q196.39375 36.33125 197.59688 36.33125Q198.8 36.33125 199.37813 35.846874Q199.97188 35.346874 199.97188 34.690624Q199.97188 34.096874 199.45625 33.753124Q199.09688 33.51875 197.65938 33.159374Q195.72188 32.659374 194.97188 32.315624Q194.2375 31.95625 193.84688 31.33125Q193.45625 30.690624 193.45625 29.925Q193.45625 29.2375 193.76875 28.64375Q194.09688 28.05 194.64375 27.659374Q195.05 27.3625 195.75313 27.159374Q196.47188 26.940624 197.28438 26.940624Q198.50313 26.940624 199.425 27.3Q200.34688 27.64375 200.78438 28.253124Q201.22188 28.846874 201.39375 29.846874L199.675 30.08125Q199.55 29.284374 198.9875 28.846874Q198.425 28.39375 197.40938 28.39375Q196.19063 28.39375 195.675 28.8Q195.15938 29.190624 195.15938 29.721874Q195.15938 30.065624 195.37813 30.346874Q195.58125 30.628124 196.05 30.815624Q196.31563 30.909374 197.59688 31.253124Q199.47188 31.753124 200.20625 32.08125Q200.94063 32.39375 201.3625 33.003124Q201.78438 33.596874 201.78438 34.503124Q201.78438 35.378124 201.26875 36.159374Q200.75313 36.940624 199.78438 37.3625Q198.81563 37.784374 197.59688 37.784374Q195.58125 37.784374 194.51875 36.940624Q193.45625 36.096874 193.15938 34.45625ZM203.8625 37.55L203.8625 23.2375L205.62813 23.2375L205.62813 28.3625Q206.8625 26.940624 208.7375 26.940624Q209.87813 26.940624 210.72188 27.39375Q211.58125 27.846874 211.94063 28.659374Q212.31563 29.45625 212.31563 30.971874L212.31563 37.55L210.56563 37.55L210.56563 30.971874Q210.56563 29.659374 209.9875 29.065624Q209.40938 28.45625 208.37813 28.45625Q207.59688 28.45625 206.89375 28.8625Q206.20625 29.26875 205.90938 29.971874Q205.62813 30.659374 205.62813 31.878124L205.62813 37.55L203.8625 37.55ZM215.78438 37.55L212.6125 27.175L214.425 27.175L216.08125 33.159374L216.69063 35.39375Q216.7375 35.221874 217.22188 33.253124L218.87813 27.175L220.69063 27.175L222.2375 33.190624L222.75313 35.175L223.34688 33.175L225.12813 27.175L226.83125 27.175L223.59688 37.55L221.76875 37.55L220.1125 31.33125L219.72188 29.565624L217.6125 37.55L215.78438 37.55ZM228.87813 25.253124L228.87813 23.2375L230.64375 23.2375L230.64375 25.253124L228.87813 25.253124ZM228.87813 37.55L228.87813 27.175L230.64375 27.175L230.64375 37.55L228.87813 37.55ZM232.8625 37.55L232.8625 27.175L234.45625 27.175L234.45625 28.659374Q235.59688 26.940624 237.75313 26.940624Q238.69063 26.940624 239.47188 27.284374Q240.26875 27.6125 240.65938 28.159374Q241.05 28.70625 241.20625 29.45625Q241.3 29.95625 241.3 31.175L241.3 37.55L239.53438 37.55L239.53438 31.2375Q239.53438 30.159374 239.33125 29.628124Q239.12813 29.096874 238.59688 28.784374Q238.08125 28.471874 237.37813 28.471874Q236.25313 28.471874 235.44063 29.190624Q234.62813 29.89375 234.62813 31.878124L234.62813 37.55L232.8625 37.55ZM248.55 38.409374L250.25313 38.659374Q250.3625 39.45625 250.84688 39.815624Q251.50313 40.3 252.64375 40.3Q253.8625 40.3 254.51875 39.815624Q255.19063 39.33125 255.425 38.45625Q255.56563 37.909374 255.55 36.190624Q254.39375 37.55 252.675 37.55Q250.53438 37.55 249.3625 36.003124Q248.19063 34.45625 248.19063 32.3Q248.19063 30.815624 248.72188 29.565624Q249.26875 28.315624 250.28438 27.628124Q251.31563 26.940624 252.69063 26.940624Q254.51875 26.940624 255.72188 28.425L255.72188 27.175L257.33124 27.175L257.33124 36.14375Q257.33124 38.565624 256.83124 39.565624Q256.34686 40.58125 255.26875 41.159374Q254.20625 41.753124 252.64375 41.753124Q250.8 41.753124 249.64375 40.925Q248.50313 40.096874 248.55 38.409374ZM250.00313 32.175Q250.00313 34.221874 250.81563 35.159374Q251.62813 36.096874 252.84688 36.096874Q254.05 36.096874 254.8625 35.159374Q255.69063 34.221874 255.69063 32.2375Q255.69063 30.33125 254.84688 29.3625Q254.00313 28.39375 252.81563 28.39375Q251.64375 28.39375 250.81563 29.346874Q250.00313 30.3 250.00313 32.175ZM266.97186 34.20625L268.78436 34.440624Q268.3625 36.01875 267.1906 36.909374Q266.03436 37.784374 264.22186 37.784374Q261.95624 37.784374 260.6125 36.39375Q259.28436 34.9875 259.28436 32.45625Q259.28436 29.83125 260.6281 28.39375Q261.97186 26.940624 264.1281 26.940624Q266.20624 26.940624 267.51874 28.3625Q268.84686 29.76875 268.84686 32.346874Q268.84686 32.503124 268.83124 32.815624L261.09686 32.815624Q261.1906 34.51875 262.0656 35.425Q262.9406 36.33125 264.2375 36.33125Q265.20624 36.33125 265.8781 35.83125Q266.5656 35.315624 266.97186 34.20625ZM261.1906 31.3625L266.9875 31.3625Q266.8781 30.065624 266.33124 29.409374Q265.4875 28.39375 264.14374 28.39375Q262.9406 28.39375 262.1125 29.20625Q261.28436 30.003124 261.1906 31.3625ZM274.70624 35.971874L274.95624 37.534374Q274.22186 37.690624 273.6281 37.690624Q272.675 37.690624 272.14374 37.39375Q271.6281 37.08125 271.40936 36.596874Q271.1906 36.096874 271.1906 34.51875L271.1906 28.55L269.90936 28.55L269.90936 27.175L271.1906 27.175L271.1906 24.6125L272.9406 23.55L272.9406 27.175L274.70624 27.175L274.70624 28.55L272.9406 28.55L272.9406 34.6125Q272.9406 35.3625 273.03436 35.58125Q273.1281 35.784374 273.33124 35.925Q273.55 36.05 273.9406 36.05Q274.22186 36.05 274.70624 35.971874ZM286.70624 35.971874L286.95624 37.534374Q286.22186 37.690624 285.6281 37.690624Q284.675 37.690624 284.14374 37.39375Q283.6281 37.08125 283.40936 36.596874Q283.1906 36.096874 283.1906 34.51875L283.1906 28.55L281.90936 28.55L281.90936 27.175L283.1906 27.175L283.1906 24.6125L284.9406 23.55L284.9406 27.175L286.70624 27.175L286.70624 28.55L284.9406 28.55L284.9406 34.6125Q284.9406 35.3625 285.03436 35.58125Q285.1281 35.784374 285.33124 35.925Q285.55 36.05 285.9406 36.05Q286.22186 36.05 286.70624 35.971874ZM288.8625 37.55L288.8625 23.2375L290.6281 23.2375L290.6281 28.3625Q291.8625 26.940624 293.7375 26.940624Q294.8781 26.940624 295.72186 27.39375Q296.58124 27.846874 296.9406 28.659374Q297.3156 29.45625 297.3156 30.971874L297.3156 37.55L295.5656 37.55L295.5656 30.971874Q295.5656 29.659374 294.9875 29.065624Q294.40936 28.45625 293.3781 28.45625Q292.59686 28.45625 291.89374 28.8625Q291.20624 29.26875 290.90936 29.971874Q290.6281 30.659374 290.6281 31.878124L290.6281 37.55L288.8625 37.55ZM305.97186 34.20625L307.78436 34.440624Q307.3625 36.01875 306.1906 36.909374Q305.03436 37.784374 303.22186 37.784374Q300.95624 37.784374 299.6125 36.39375Q298.28436 34.9875 298.28436 32.45625Q298.28436 29.83125 299.6281 28.39375Q300.97186 26.940624 303.1281 26.940624Q305.20624 26.940624 306.51874 28.3625Q307.84686 29.76875 307.84686 32.346874Q307.84686 32.503124 307.83124 32.815624L300.09686 32.815624Q300.1906 34.51875 301.0656 35.425Q301.9406 36.33125 303.2375 36.33125Q304.20624 36.33125 304.8781 35.83125Q305.5656 35.315624 305.97186 34.20625ZM300.1906 31.3625L305.9875 31.3625Q305.8781 30.065624 305.33124 29.409374Q304.4875 28.39375 303.14374 28.39375Q301.9406 28.39375 301.1125 29.20625Q300.28436 30.003124 300.1906 31.3625ZM315.8625 37.55L315.8625 27.175L317.4406 27.175L317.4406 28.628124Q317.925 27.878124 318.7375 27.409374Q319.55 26.940624 320.58124 26.940624Q321.7375 26.940624 322.47186 27.425Q323.20624 27.89375 323.51874 28.753124Q324.7531 26.940624 326.72186 26.940624Q328.26874 26.940624 329.09686 27.8Q329.925 28.659374 329.925 30.425L329.925 37.55L328.175 37.55L328.175 31.01875Q328.175 29.95625 328.0031 29.503124Q327.83124 29.034374 327.3781 28.753124Q326.9406 28.471874 326.33124 28.471874Q325.2375 28.471874 324.5031 29.20625Q323.78436 29.925 323.78436 31.51875L323.78436 37.55L322.03436 37.55L322.03436 30.815624Q322.03436 29.64375 321.59686 29.065624Q321.175 28.471874 320.1906 28.471874Q319.45624 28.471874 318.8156 28.8625Q318.1906 29.253124 317.90936 30.003124Q317.6281 30.753124 317.6281 32.175L317.6281 37.55L315.8625 37.55ZM331.22186 32.3625Q331.22186 29.4875 332.8156 28.096874Q334.15936 26.940624 336.08124 26.940624Q338.22186 26.940624 339.5656 28.346874Q340.925 29.753124 340.925 32.221874Q340.925 34.221874 340.33124 35.378124Q339.7375 36.51875 338.58124 37.159374Q337.4406 37.784374 336.08124 37.784374Q333.89374 37.784374 332.55 36.39375Q331.22186 34.9875 331.22186 32.3625ZM333.01874 32.3625Q333.01874 34.3625 333.8781 35.346874Q334.7531 36.33125 336.08124 36.33125Q337.39374 36.33125 338.2531 35.346874Q339.1281 34.346874 339.1281 32.3Q339.1281 30.378124 338.2531 29.39375Q337.3781 28.39375 336.08124 28.39375Q334.7531 28.39375 333.8781 29.39375Q333.01874 30.378124 333.01874 32.3625ZM342.15936 34.45625L343.90936 34.175Q344.05 35.221874 344.72186 35.784374Q345.39374 36.33125 346.59686 36.33125Q347.8 36.33125 348.3781 35.846874Q348.97186 35.346874 348.97186 34.690624Q348.97186 34.096874 348.45624 33.753124Q348.09686 33.51875 346.65936 33.159374Q344.72186 32.659374 343.97186 32.315624Q343.2375 31.95625 342.84686 31.33125Q342.45624 30.690624 342.45624 29.925Q342.45624 29.2375 342.76874 28.64375Q343.09686 28.05 343.64374 27.659374Q344.05 27.3625 344.7531 27.159374Q345.47186 26.940624 346.28436 26.940624Q347.5031 26.940624 348.425 27.3Q349.34686 27.64375 349.78436 28.253124Q350.22186 28.846874 350.39374 29.846874L348.675 30.08125Q348.55 29.284374 347.9875 28.846874Q347.425 28.39375 346.40936 28.39375Q345.1906 28.39375 344.675 28.8Q344.15936 29.190624 344.15936 29.721874Q344.15936 30.065624 344.3781 30.346874Q344.58124 30.628124 345.05 30.815624Q345.3156 30.909374 346.59686 31.253124Q348.47186 31.753124 349.20624 32.08125Q349.9406 32.39375 350.3625 33.003124Q350.78436 33.596874 350.78436 34.503124Q350.78436 35.378124 350.26874 36.159374Q349.7531 36.940624 348.78436 37.3625Q347.8156 37.784374 346.59686 37.784374Q344.58124 37.784374 343.51874 36.940624Q342.45624 36.096874 342.15936 34.45625ZM356.70624 35.971874L356.95624 37.534374Q356.22186 37.690624 355.6281 37.690624Q354.675 37.690624 354.14374 37.39375Q353.6281 37.08125 353.40936 36.596874Q353.1906 36.096874 353.1906 34.51875L353.1906 28.55L351.90936 28.55L351.90936 27.175L353.1906 27.175L353.1906 24.6125L354.9406 23.55L354.9406 27.175L356.70624 27.175L356.70624 28.55L354.9406 28.55L354.9406 34.6125Q354.9406 35.3625 355.03436 35.58125Q355.1281 35.784374 355.33124 35.925Q355.55 36.05 355.9406 36.05Q356.22186 36.05 356.70624 35.971874ZM362.15936 34.01875Q362.14374 33.675 362.14374 33.503124Q362.14374 32.45625 362.4406 31.70625Q362.65936 31.14375 363.14374 30.565624Q363.4875 30.14375 364.39374 29.346874Q365.3156 28.534374 365.58124 28.065624Q365.8625 27.58125 365.8625 27.01875Q365.8625 25.9875 365.05 25.221874Q364.2531 24.440624 363.09686 24.440624Q361.97186 24.440624 361.22186 25.14375Q360.47186 25.846874 360.2375 27.33125L358.425 27.1125Q358.675 25.1125 359.8781 24.05Q361.08124 22.9875 363.0656 22.9875Q365.175 22.9875 366.425 24.128124Q367.675 25.26875 367.675 26.89375Q367.675 27.83125 367.22186 28.628124Q366.78436 29.409374 365.5031 30.55Q364.64374 31.315624 364.3781 31.675Q364.1281 32.034374 363.9875 32.503124Q363.8625 32.971874 363.84686 34.01875L362.15936 34.01875ZM362.05 37.55L362.05 35.55L364.05 35.55L364.05 37.55L362.05 37.55Z" fill-rule="nonzero"/></svg>