<svg xmlns="http://www.w3.org/2000/svg" width="115" height="115" viewBox="0 0 115 115">
  <g id="Group_14321" data-name="Group 14321" transform="translate(-451 -4842)">
    <rect id="Rectangle_3943" data-name="Rectangle 3943" width="115" height="115" transform="translate(451 4842)" fill="none"/>
    <g id="Group_14221" data-name="Group 14221" transform="translate(454 4848.348)">
      <g id="Group_14211" data-name="Group 14211" transform="translate(0 0)">
        <g id="Group_14210" data-name="Group 14210">
          <path id="Path_5794" data-name="Path 5794" d="M105.123,9H69.489C59.54,9,47.546,23.5,41.511,33.163c-1.913,3.063-9.756,12.153-14.8,23.973C26.178,58.38,16.4,57.1,7,49.176c4.47,10.366,16.516,14.849,16.516,14.849a61.031,61.031,0,0,0-1.54,18.454c.723,8.3,4.437,16.859,8.539,20.265,20.443,16.978,43.477-2.482,43.477-2.482l-4.5-3.47s-3.388,3.965-14.258,3.47c-5.468-.249-10.526-1.3-13.72-4.914a19.428,19.428,0,0,1-4.154-12.627c2.264-21.331,23.942-18.7,25.411-18.7,2.676,0-5.149,10.575-5.149,10.575s11.022,4.77,17.728,4.77c1.119,0,4.194,2.235,4.611,3.352q4.232,11.314,8.465,22.628c.417,1.116,3.772,3.229,7.074,2.985,2.081-.154,12.955-1.455,14.418-2.041,4.116-1.649,4.116-6.525,4.116-6.525V17.928S114.032,9,105.123,9ZM68.749,42.7a4.213,4.213,0,1,1,4.116-4.212A4.165,4.165,0,0,1,68.749,42.7Z" transform="translate(-7 -9)" fill="#6e1a1a" fill-rule="evenodd"/>
        </g>
      </g>
    </g>
  </g>
</svg>
