<?xml version="1.0" encoding="UTF-8"?>
<svg xmlns="http://www.w3.org/2000/svg" xmlns:xlink="http://www.w3.org/1999/xlink" width="28px" height="36px" viewBox="0 0 49 62" version="1.1">
<g id="surface1">
<path style=" stroke:none;fill-rule:nonzero;fill:rgb(43.137255%,10.196078%,10.196078%);fill-opacity:1;" d="M 24.667969 0 C 11.050781 0.015625 0.015625 10.949219 0 24.441406 C 0 33.582031 4.167969 42.992188 12.074219 51.664062 C 15.636719 55.601562 19.671875 59.097656 24.082031 62.074219 C 24.253906 62.1875 24.457031 62.246094 24.667969 62.246094 C 24.875 62.25 25.078125 62.1875 25.25 62.074219 C 29.664062 59.097656 33.695312 55.601562 37.261719 51.667969 C 45.152344 43.003906 49.332031 33.59375 49.332031 24.441406 C 49.316406 10.949219 38.28125 0.015625 24.667969 0 Z M 24.667969 0 "/>
<path style=" stroke:none;fill-rule:evenodd;fill:rgb(100%,100%,100%);fill-opacity:1;" d="M 34.015625 10.445312 L 23.816406 10.445312 C 20.96875 10.445312 17.539062 14.554688 15.8125 17.296875 C 15.265625 18.164062 13.023438 20.742188 11.574219 24.09375 C 11.421875 24.449219 8.625 24.085938 5.933594 21.835938 C 7.214844 24.777344 10.660156 26.046875 10.660156 26.046875 C 10.246094 27.761719 10.097656 29.523438 10.21875 31.28125 C 10.425781 33.632812 11.488281 36.0625 12.664062 37.027344 C 18.515625 41.84375 25.105469 36.324219 25.105469 36.324219 L 23.816406 35.339844 C 23.816406 35.339844 22.847656 36.464844 19.738281 36.324219 C 18.171875 36.253906 16.722656 35.957031 15.808594 34.929688 C 15 33.914062 14.578125 32.644531 14.621094 31.351562 C 15.269531 25.300781 21.472656 26.046875 21.894531 26.046875 C 22.660156 26.046875 20.417969 29.046875 20.417969 29.046875 C 20.417969 29.046875 23.574219 30.398438 25.492188 30.398438 C 26.03125 30.554688 26.5 30.890625 26.816406 31.351562 L 29.238281 37.769531 C 29.734375 38.359375 30.488281 38.671875 31.261719 38.613281 C 32.648438 38.496094 34.027344 38.300781 35.390625 38.035156 C 36.105469 37.691406 36.5625 36.972656 36.566406 36.1875 L 36.566406 12.976562 C 36.582031 12.300781 36.320312 11.648438 35.835938 11.171875 C 35.355469 10.691406 34.699219 10.429688 34.015625 10.445312 Z M 23.605469 20 C 23.117188 20.011719 22.664062 19.730469 22.46875 19.285156 C 22.273438 18.839844 22.367188 18.320312 22.710938 17.972656 C 23.054688 17.625 23.574219 17.515625 24.027344 17.699219 C 24.484375 17.882812 24.78125 18.320312 24.78125 18.804688 C 24.789062 19.457031 24.261719 19.992188 23.605469 20 Z M 23.605469 20 "/>
</g>
</svg>
