<?xml version="1.0" encoding="UTF-8"?>
<svg xmlns="http://www.w3.org/2000/svg" xmlns:xlink="http://www.w3.org/1999/xlink" width="28px" height="36px" viewBox="0 0 28 35" version="1.1">
<g id="surface1">
<path style=" stroke:none;fill-rule:nonzero;fill:rgb(43.137255%,10.196078%,10.196078%);fill-opacity:1;" d="M 14.089844 0 C 6.3125 0.0078125 0.0078125 6.152344 0 13.734375 C 0 18.867188 2.382812 24.15625 6.898438 29.027344 C 8.933594 31.238281 11.238281 33.199219 13.757812 34.875 C 13.855469 34.9375 13.972656 34.96875 14.089844 34.96875 C 14.210938 34.972656 14.324219 34.9375 14.425781 34.875 C 16.945312 33.199219 19.246094 31.238281 21.285156 29.027344 C 25.792969 24.160156 28.179688 18.875 28.179688 13.730469 C 28.171875 6.152344 21.867188 0.0078125 14.089844 0 Z M 14.089844 0 "/>
<path style=" stroke:none;fill-rule:nonzero;fill:rgb(100%,100%,100%);fill-opacity:1;" d="M 14.644531 23.21875 L 14.644531 19.820312 C 14.644531 19.675781 14.523438 19.558594 14.375 19.558594 L 13.839844 19.558594 C 13.691406 19.558594 13.570312 19.675781 13.570312 19.820312 L 13.570312 23.21875 C 13.570312 23.507812 13.328125 23.742188 13.03125 23.742188 L 11.960938 23.742188 C 11.664062 23.742188 11.421875 23.507812 11.421875 23.21875 L 11.421875 18.769531 L 10.886719 18.769531 C 10.589844 18.769531 10.347656 18.535156 10.347656 18.25 L 10.347656 13.800781 C 10.347656 12.644531 11.308594 11.707031 12.496094 11.707031 L 15.71875 11.707031 C 16.902344 11.707031 17.863281 12.644531 17.863281 13.800781 L 17.863281 18.25 C 17.863281 18.535156 17.625 18.769531 17.328125 18.769531 L 16.792969 18.769531 L 16.792969 23.21875 C 16.792969 23.507812 16.550781 23.742188 16.253906 23.742188 L 15.179688 23.742188 C 15.039062 23.742188 14.902344 23.6875 14.800781 23.589844 C 14.699219 23.492188 14.644531 23.359375 14.644531 23.21875 Z M 14.105469 10.660156 C 12.773438 10.660156 11.691406 9.605469 11.691406 8.308594 C 11.691406 7.007812 12.773438 5.953125 14.105469 5.953125 C 15.441406 5.953125 16.523438 7.007812 16.523438 8.308594 C 16.523438 9.605469 15.441406 10.660156 14.105469 10.660156 Z M 14.105469 10.660156 "/>
</g>
</svg>
