<?xml version="1.0" encoding="UTF-8"?>
<svg xmlns="http://www.w3.org/2000/svg" xmlns:xlink="http://www.w3.org/1999/xlink" width="28px" height="36px" viewBox="0 0 28 35" version="1.1">
<g id="surface1">
<path style=" stroke:none;fill-rule:nonzero;fill:rgb(90.980392%,48.235294%,0%);fill-opacity:1;" d="M 14.09375 0 C 6.3125 0.0078125 0.0078125 6.179688 0 13.796875 C 0 18.957031 2.382812 24.269531 6.898438 29.164062 C 8.9375 31.386719 11.238281 33.359375 13.761719 35.042969 C 13.859375 35.105469 13.976562 35.140625 14.09375 35.140625 C 14.214844 35.140625 14.332031 35.105469 14.429688 35.042969 C 16.949219 33.363281 19.253906 31.390625 21.292969 29.167969 C 25.800781 24.277344 28.191406 18.964844 28.191406 13.796875 C 28.179688 6.179688 21.875 0.0078125 14.09375 0 Z M 14.09375 0 "/>
<path style=" stroke:none;fill-rule:nonzero;fill:rgb(100%,100%,100%);fill-opacity:1;" d="M 13.140625 23.917969 C 13.582031 23.539062 13.925781 23.0625 14.136719 22.523438 C 14.347656 23.058594 14.691406 23.539062 15.136719 23.914062 C 14.835938 23.941406 14.5 23.953125 14.132812 23.953125 C 13.769531 23.953125 13.441406 23.945312 13.140625 23.917969 Z M 10.175781 22.402344 L 10.167969 22.265625 C 10.265625 21.507812 11.460938 17.410156 12.589844 13.769531 L 12.691406 13.441406 L 8.5 11.316406 L 8.679688 14.796875 L 11.507812 14.402344 C 10.316406 18.277344 9.609375 20.785156 9.390625 21.890625 C 7.828125 21.5 6.785156 20.820312 6.210938 19.816406 C 5.902344 19.257812 5.730469 18.636719 5.699219 18 C 6.429688 18.640625 7.332031 19.066406 8.296875 19.226562 L 8.472656 18.414062 C 6.148438 17.929688 5.769531 16.703125 5.753906 16.652344 L 5.738281 16.65625 C 5.8125 16.074219 5.925781 15.5 6.078125 14.933594 C 6.75 15.851562 7.734375 16.503906 8.855469 16.769531 L 9.0625 15.964844 C 7.882812 15.695312 6.902344 14.90625 6.402344 13.828125 C 6.664062 13.003906 6.96875 12.195312 7.253906 11.4375 C 7.578125 10.582031 7.882812 9.773438 8.070312 9.089844 C 8.441406 7.742188 9.484375 7.058594 11.171875 7.058594 C 12.128906 7.082031 13.078125 7.25 13.980469 7.5625 L 14.136719 7.621094 L 14.285156 7.5625 C 15.1875 7.25 16.136719 7.078125 17.09375 7.058594 C 18.78125 7.058594 19.824219 7.742188 20.195312 9.089844 C 20.386719 9.773438 20.691406 10.582031 21.011719 11.441406 C 21.308594 12.230469 21.625 13.078125 21.898438 13.9375 C 21.378906 14.960938 20.421875 15.703125 19.289062 15.964844 L 19.496094 16.769531 C 20.582031 16.511719 21.539062 15.894531 22.210938 15.019531 C 22.363281 15.601562 22.472656 16.191406 22.539062 16.785156 C 22.375 17.121094 21.765625 18.023438 19.878906 18.417969 L 20.054688 19.226562 C 20.980469 19.070312 21.84375 18.671875 22.5625 18.082031 C 22.523438 18.691406 22.351562 19.28125 22.058594 19.820312 C 21.492188 20.808594 20.464844 21.484375 18.9375 21.875 C 18.71875 20.761719 18.011719 18.261719 16.824219 14.402344 L 19.621094 14.792969 L 20.058594 11.308594 L 15.640625 13.4375 L 15.746094 13.773438 C 16.785156 17.144531 17.890625 20.902344 18.125 22.046875 L 18.101562 22.050781 L 18.113281 22.394531 C 18.113281 22.40625 18.058594 23.167969 16.722656 23.625 C 15.261719 23.625 14.765625 21.886719 14.582031 20.960938 C 14.597656 20.855469 14.597656 20.761719 14.609375 20.683594 C 15.261719 20.589844 15.878906 20.328125 16.394531 19.925781 L 15.867188 19.269531 C 14.859375 20.023438 13.480469 20.085938 12.402344 19.433594 L 11.9375 20.125 C 12.460938 20.441406 13.050781 20.632812 13.660156 20.691406 C 13.667969 20.757812 13.679688 20.828125 13.695312 20.914062 C 13.535156 21.824219 13.070312 23.621094 11.609375 23.621094 L 11.609375 23.628906 C 10.265625 23.171875 10.175781 22.40625 10.175781 22.402344 Z M 13.875 11.453125 L 14.160156 11.667969 L 14.425781 11.429688 C 15.34375 10.691406 16.554688 10.394531 17.71875 10.625 L 17.890625 9.8125 C 16.578125 9.550781 15.207031 9.839844 14.121094 10.609375 C 12.988281 9.941406 11.671875 9.625 10.347656 9.707031 L 10.421875 10.53125 C 10.429688 10.53125 10.53125 10.523438 10.707031 10.523438 C 11.835938 10.503906 12.941406 10.832031 13.875 11.457031 Z M 13.90625 9.597656 L 14.140625 9.738281 L 14.371094 9.589844 C 15.390625 9.039062 16.582031 8.871094 17.71875 9.121094 L 17.890625 8.308594 C 16.625 8.035156 15.300781 8.199219 14.140625 8.765625 C 12.960938 8.152344 11.597656 7.953125 10.289062 8.210938 L 10.480469 9.015625 C 10.789062 8.957031 11.101562 8.929688 11.414062 8.933594 C 12.292969 8.921875 13.15625 9.152344 13.90625 9.597656 Z M 17.1875 13.613281 L 19.019531 12.726562 L 18.882812 13.851562 Z M 9.425781 12.722656 L 11.175781 13.609375 L 9.480469 13.847656 Z M 5.355469 8.882812 C 5.246094 8.277344 5.398438 7.652344 5.78125 7.164062 L 7.601562 7.996094 C 7.449219 8.273438 7.328125 8.570312 7.246094 8.875 C 7.113281 9.359375 6.914062 9.929688 6.6875 10.535156 C 6.054688 10.164062 5.578125 9.574219 5.355469 8.882812 Z M 21.015625 8.875 C 20.933594 8.558594 20.808594 8.253906 20.644531 7.96875 L 22.40625 7.164062 C 22.789062 7.652344 22.941406 8.273438 22.832031 8.878906 C 22.621094 9.546875 22.167969 10.121094 21.5625 10.496094 C 21.34375 9.902344 21.148438 9.347656 21.019531 8.875 Z M 21.015625 8.875 "/>
</g>
</svg>
