<svg xmlns="http://www.w3.org/2000/svg" width="115" height="115" viewBox="0 0 115 115">
  <g id="Group_14322" data-name="Group 14322" transform="translate(-1011 -4842)">
    <rect id="Rectangle_3944" data-name="Rectangle 3944" width="115" height="115" transform="translate(1011 4842)" fill="none"/>
    <path id="Union_10" data-name="Union 10" d="M42.372,93.608a19.649,19.649,0,0,0,5.378-7.744A19.845,19.845,0,0,0,53.17,93.6c-1.632.14-3.439.217-5.424.217C45.781,93.818,44,93.745,42.372,93.608ZM26.32,85.191l-.038-.752c.531-4.215,7-26.959,13.106-47.163l.553-1.827-22.688-11.8.961,19.327,15.308-2.2C27.072,62.294,23.242,76.2,22.077,82.339,13.6,80.182,7.955,76.412,4.851,70.839a23.875,23.875,0,0,1-2.768-10.1c2.691,2.587,7.053,5.315,14.067,6.815l.961-4.5c-12.592-2.693-14.632-9.51-14.717-9.8l-.085.021a71.344,71.344,0,0,1,1.836-9.554A25.956,25.956,0,0,0,19.174,53.912L20.3,49.446A21.117,21.117,0,0,1,5.9,37.582c1.428-4.56,3.074-9.054,4.613-13.261,1.743-4.758,3.384-9.255,4.4-13.039C16.937,3.8,22.587,0,31.706,0A49,49,0,0,1,46.921,2.808l.825.314.82-.316A48.754,48.754,0,0,1,63.772,0c9.119,0,14.764,3.8,16.784,11.284,1.025,3.785,2.67,8.28,4.408,13.04,1.607,4.4,3.329,9.1,4.8,13.873a21.287,21.287,0,0,1-14.122,11.25l1.127,4.466A26,26,0,0,0,91.456,44.2,69.667,69.667,0,0,1,93.241,54c-.9,1.861-4.2,6.866-14.411,9.05l.965,4.5c6.594-1.41,10.84-3.908,13.565-6.353a23.623,23.623,0,0,1-2.729,9.636c-3.061,5.5-8.613,9.243-16.9,11.414C72.551,76.077,68.725,62.2,62.3,40.777L77.44,42.946l2.368-19.359L55.878,35.41l.57,1.866c5.646,18.7,11.618,39.574,12.894,45.922l-.136.027.072,1.914c0,.061-.293,4.291-7.537,6.822v0c-7.911,0-10.594-9.643-11.584-14.781.089-.595.094-1.12.14-1.551a19.93,19.93,0,0,0,9.68-4.215L57.119,67.8c-8.944,7.079-18.348,1.153-18.743.9l-2.517,3.857a21.977,21.977,0,0,0,9.31,3.143c.043.354.123.764.2,1.224-.871,5.067-3.388,15.034-11.3,15.034v.035C26.821,89.466,26.324,85.215,26.32,85.191ZM46.338,24.421l1.552,1.188,1.424-1.329a21.362,21.362,0,0,1,17.829-4.47l.935-4.509a25.873,25.873,0,0,0-20.41,4.412c-9.012-5.947-19.934-5.054-20.418-5.013l.4,4.589c.026,0,.582-.046,1.526-.046C32.446,19.244,40.293,19.773,46.338,24.421Zm.174-10.32,1.267.793,1.241-.823a25.654,25.654,0,0,1,18.123-2.62l.935-4.51A30.612,30.612,0,0,0,47.767,9.486,31.192,31.192,0,0,0,26.919,6.4l1.071,4.477a24.46,24.46,0,0,1,5.042-.472A25.212,25.212,0,0,1,46.513,14.1ZM64.265,36.4,74.2,31.5l-.761,6.221ZM22.256,31.44l9.484,4.937-9.178,1.316ZM.239,10.132c-.68-3,.094-6.206,2.3-9.539l9.85,4.621a22.466,22.466,0,0,0-1.926,4.867c-.723,2.7-1.811,5.853-3.035,9.232C5.064,17.717,1.242,14.538.239,10.132Zm84.768-.05a22,22,0,0,0-2.015-5.019L92.523.593c2.206,3.326,2.98,6.522,2.308,9.519-.948,4.195-4.489,7.294-6.874,8.966C86.771,15.791,85.713,12.718,85.007,10.082Z" transform="translate(1021 4852.59)" fill="#e87b00"/>
  </g>
</svg>
